<svg width="377" height="88" viewBox="0 0 377 88" fill="none" xmlns="http://www.w3.org/2000/svg">
<path d="M377 66.8968V48.0076H375.743V44.7567L374.737 43.7478V15.9745L373.536 14.7694H369.179V17.5159L368.285 18.4127V24.6344L367.168 25.7554V37.414L365.604 38.9834V43.2433L364.654 44.1962L362.838 42.3745V36.8815L361.553 35.5924V27.1287L356.777 22.3363H354.822L349.766 27.4089V39.0675H348.509V46.6624H346.051V35.4803H343.202V34.4153H341.498V35.5643H341.107V34.4153H339.459V35.5924H338.314V38.6191L337.783 39.1516V43.3834H337.252V23.5134H327.085V30.3236L325.605 31.8089V34.107L324.208 35.5083V37.1057H323.482V39.0955H322.42V40.1045L320.437 38.1147V36.8255L321.136 36.1248L319.516 34.4994V33.5185H307.98V36.2369H300.578V15.1338L297.673 12.2191H284.377V18.5248H278.483V21.1592H277.087V22.2803H274.293V17.6561L272.478 15.8344H261.305V30.0994H260.383V4.73631L255.663 0H242.171V24.3261L240.44 22.5885L239.071 23.9618V27.0166H234.127V22.1121H229.658V17.0955L228.541 15.9745V12.6675L224.798 8.9121L221.194 12.5274V22.8688L220.44 23.6255V32.8739H218.988V15.6382L218.094 14.7414V6.10955L216.027 4.03567V1.98981L214.128 0.0840764L211.921 2.29809V4.23185L210.469 5.68917V9.97707L209.128 8.63185H203.625L198.067 14.2089V33.0981H187.843V16.2548L184.855 13.2561V10.7338H182.229V15.358H180.525V14.349H176.252V15.4701H174.101V19.758H171.419V31.3045H170.079V36.9936L168.71 38.3669V35.3401H167.928V33.6306H167.285V32.0611H161.001V35.3121H160.247V37.1338L159.492 37.8904V40.5248H158.124V41.1975H153.766V38.6471H152.398V37.6662H151.085V36.4892H147.035V37.6102L146.085 38.5631H143.348V36.1809H142.454V31.1924H141.811V26.9605H141.085V23.9618L139.996 22.8688H132.259V18.4688H120.108V16.3949L118.823 15.1057H111.756L110.053 16.8153H103.879V23.9618H102.315V26.0637H98.9914V29.651C89.1034 26.6522 79.2713 23.6815 74.439 22.1962L75.0535 21.5796V17.8803H42.1216V21.7478L42.8757 22.5045C33.9374 25.2229 12.318 31.7809 0.027832 35.5083V36.9656L43.6299 23.3452V24.8586C35.2223 27.4089 12.6811 34.2471 0.027832 38.0866V39.5439L43.6299 25.9236V62.2166C27.1779 62.665 10.4465 63.0854 0.027832 63.3656V87.972H377V66.8688V66.8968ZM72.9586 23.6255L73.5173 23.065L98.9076 30.9962V32.1732H98.5724C87.7068 28.8943 77.0088 25.6433 72.9586 24.4102V23.6535V23.6255ZM72.9586 25.4471L96.9803 32.958V49.8293L94.4943 52.3236V55.3503L93.2094 56.6395V60.9834C93.2094 60.9834 84.8856 61.1796 72.9866 61.4879V25.4471H72.9586Z" fill="#262523"/>
</svg>
