<svg width="249" height="236" viewBox="0 0 249 236" fill="none" xmlns="http://www.w3.org/2000/svg">
<g clip-path="url(#clip0_79_616)">
<path d="M205.381 58.4461C200.848 55.5447 196.329 52.6318 191.812 49.7059C185.847 45.8549 179.677 41.8713 173.567 37.9825C170.603 36.0966 167.593 34.2843 164.675 32.536C162.231 31.0665 159.697 29.5439 157.278 28.0273C149.921 23.4103 141.372 21.9641 131.15 23.5994C124.282 24.6975 117.897 26.748 111.719 28.7252L110.243 29.2028C107.125 30.1963 104.077 31.3062 101.126 32.3788C99.8439 32.8443 98.5585 33.3172 97.2723 33.7718L96.9959 33.8775C83.6829 39.1116 68.1357 45.7655 53.7643 55.4614C51.4928 56.9949 49.5704 58.7427 47.8743 60.286L47.5124 60.6232C44.6502 63.2275 43.086 66.7892 43.0849 70.6851C42.0646 73.4921 41.0059 76.3448 39.9765 79.1118C38.028 84.3489 36.0174 89.765 34.1672 95.1943C31.4991 103.018 28.9712 110.98 26.5259 118.687C25.8263 120.887 25.1268 123.087 24.4218 125.289C22.301 131.927 23.7875 136.286 29.5564 140.323C30.6174 141.067 31.6894 141.726 32.7486 142.302L33.0114 148.042L35.9711 143.921C48.4611 150.117 60.9544 156.305 73.4478 162.493L90.963 171.171L107.553 179.396C113.962 182.574 120.364 185.748 126.773 188.926C129.217 190.135 131.656 191.345 134.1 192.554C136.942 193.959 139.779 195.365 142.621 196.77C144.367 197.63 146.234 198.451 148.162 199.205C149.24 199.619 152.51 200.891 156.244 199.463C160.412 197.869 161.911 194.201 162.403 193.001C163.915 189.303 165.434 185.623 166.95 181.936C170.454 173.439 174.07 164.65 177.522 155.937C186.752 132.601 196.027 108.849 205.003 85.8713L207.845 78.6024C208.624 76.6086 209.178 74.6944 209.72 72.8469C209.885 72.2868 210.044 71.7288 210.213 71.1796C211.729 66.2075 209.876 61.3306 205.381 58.4461Z" fill="#C6C2E5"/>
<path d="M112.891 37.4906C119.351 35.4239 125.791 33.2718 132.521 32.1889C139.582 31.0604 146.368 31.4537 152.647 35.3958C158.025 38.7691 163.54 41.916 168.887 45.3201C179.513 52.0852 190.065 58.9785 200.678 65.7736C201.828 66.5078 202.267 67.3778 201.879 68.6382C201.188 70.9092 200.592 73.2182 199.728 75.4252C189.655 101.202 179.597 126.986 169.416 152.724C164.518 165.097 159.378 177.376 154.334 189.693C153.622 191.438 153.019 191.743 151.303 191.076C149.661 190.436 148.043 189.732 146.465 188.95C129.241 180.433 112.031 171.886 94.8141 163.355C75.703 153.882 56.5852 144.425 37.4808 134.938C36.4594 134.427 35.4727 133.829 34.5386 133.174C31.9165 131.337 31.7427 130.932 32.7026 127.918C35.8897 117.927 39.006 107.913 42.3926 97.9878C45.2073 89.7355 48.3705 81.5985 51.3417 73.3983C51.6353 72.5901 51.7979 71.683 51.7753 70.8281C51.7362 69.296 52.2794 68.0197 53.3537 67.0435C55.041 65.5098 56.7356 63.9298 58.6182 62.6631C71.5534 53.9389 85.7146 47.6411 100.167 41.9588C104.402 40.4574 108.606 38.8435 112.879 37.4764L112.891 37.4906ZM132.697 174.458C132.308 174.222 131.914 173.987 131.527 173.756C131.437 174.12 131.341 174.486 131.25 174.85C130.445 175.183 129.635 175.517 128.83 175.85C128.833 176.085 128.839 176.312 128.842 176.547C129.564 176.793 130.373 177.366 130.989 177.205C131.773 176.998 132.355 176.179 131.9 175.154C132.166 174.922 132.431 174.69 132.697 174.458ZM129.253 134.099C127.981 133.225 126.968 132.525 125.798 131.724C125.02 132.891 124.448 133.75 123.897 134.569C124.454 135.456 124.939 136.221 125.651 137.353C124.708 137.291 124.23 137.306 123.769 137.222C123.346 137.141 122.945 136.953 122.395 136.766C121.106 138.203 119.825 139.631 118.497 141.114C117.522 139.343 115.811 139.06 114.196 138.428C113.065 139.402 111.967 140.349 110.482 141.632C110.837 139.197 111.856 137.671 112.863 136.192C118.867 127.379 124.925 118.607 130.964 109.818C131.444 109.124 131.908 108.419 132.517 107.509C130.732 107.489 129.872 108.328 129.045 109.414C123.848 116.31 118.639 123.192 113.376 130.044C111.928 131.928 110.312 133.682 108.75 135.479C108.427 135.851 108.009 136.141 107.418 136.299C112.607 127.368 118.581 118.995 125.031 110.452C122.784 110.604 121.352 111.244 120.122 112.821C115.9 118.238 111.556 123.564 107.237 128.906C106.756 129.5 106.127 129.983 105.378 130.382C108.492 124.73 112.115 119.405 115.991 113.636C113.709 114.167 112.013 114.605 110.815 116.33C108.759 119.303 106.598 122.199 104.437 125.094C103.55 126.284 102.557 127.391 101.464 128.43C102.919 124.177 106.228 121.004 108.284 116.633C106.19 117.136 104.503 117.241 103.492 119.373C102.074 122.375 100.004 124.988 96.999 126.845C98.3426 124.461 99.6937 122.081 101.201 119.41C99.7803 119.301 98.874 120.002 98.0057 120.266C97.3491 121.554 96.7482 122.729 96.1472 123.903C95.977 123.831 95.8046 123.754 95.6344 123.683C95.7983 122.893 95.959 122.111 96.1907 120.979L89.6757 123.47C99.7488 133.597 109.824 143.729 119.899 153.861C130.017 164.039 140.133 174.23 150.537 184.702C152.583 155.788 154.595 127.291 156.612 98.7912C156.371 98.6787 156.132 98.5587 155.89 98.4461C146.877 110.342 137.727 122.142 129.242 134.103L129.253 134.099ZM151.05 65.1077C149.21 56.1874 147.336 47.2742 145.504 38.4877C142.494 40.801 139.702 43.3783 136.521 45.2967C130.871 48.7002 125.011 51.7675 119.166 54.8414C116.284 56.3537 113.239 57.5553 110.269 58.9024C109.903 59.0671 109.554 59.2752 109.222 59.4458C125.06 70.4805 140.763 81.4237 156.628 92.4793C154.735 83.1757 152.907 74.1392 151.05 65.1077ZM56.7627 74.1706C66.5231 88.7597 76.2911 103.352 86.0715 117.977C86.0952 117.974 86.1877 117.988 86.2657 117.965C86.3436 117.941 86.45 117.894 86.4713 117.836C91.8114 99.6658 97.1439 81.4917 102.469 63.3142C102.533 63.0911 102.457 62.828 102.44 62.3622C87.4545 67.4781 72.8561 73.6077 56.7606 74.1652L56.7627 74.1706ZM79.4986 63.0342C79.5544 63.2613 79.6103 63.4885 79.6681 63.7211C78.4642 64.0821 77.2847 64.5394 76.0577 64.7912C69.9291 66.0352 63.7895 67.2338 57.6498 68.4324C56.4532 68.6663 55.1407 68.7272 54.9583 70.4433C56.1074 71.4825 57.5024 71.2473 58.7214 71.0234C64.0007 70.0606 69.3285 69.2409 74.5073 67.8692C90.0689 63.7385 104.932 57.7003 119.377 50.6664C126.5 47.1969 133.571 43.5608 139.74 38.4742C140.861 37.5548 141.786 36.3996 143.081 35.0592C140.969 34.1336 139.214 34.289 137.563 34.585C132.715 35.4573 127.891 36.4884 123.06 37.4721C122.818 37.5212 122.598 37.6924 121.918 38.0269C126.127 37.952 129.883 36.8076 133.735 38.2545C133.153 38.4212 132.58 38.6464 131.991 38.7473C123.135 40.2515 114.27 41.7157 105.416 43.2566C104.082 43.4874 102.807 44.0682 101.558 44.7012C108.968 44.3895 116.226 42.4902 123.693 43.0265C122.745 44.1846 121.448 44.2705 120.201 44.4864C110.389 46.17 100.582 47.8699 90.7651 49.5243C87.5085 50.0739 84.5198 51.2914 81.6843 52.9909C91.7156 51.6522 101.561 48.9496 112.239 48.6683C111.296 50.0852 110.293 50.0957 109.41 50.2407C102.975 51.2667 96.5253 52.2234 90.0967 53.284C85.667 54.0151 81.2607 54.9049 76.8354 55.6964C73.4453 56.3032 70.6749 58.189 67.8137 60.0163C77.7106 57.9524 87.5924 55.8819 97.6578 54.9899C97.7283 55.1742 97.7859 55.3572 97.8509 55.5436C97.4001 55.7781 96.9766 56.1327 96.4977 56.2289C89.7656 57.6167 83.0278 58.9571 76.2991 60.3375C72.1574 61.1882 68.0227 62.0736 63.8826 62.961C61.7753 63.4128 60.0173 64.4206 58.4023 66.4361C65.6767 65.1018 72.3987 62.6802 79.4953 63.0417L79.4986 63.0342ZM91.2287 119.44L152.878 95.8643C152.893 95.6781 152.914 95.4899 152.93 95.3037C151.028 94.5213 149.128 93.7445 147.229 92.9546C145.288 92.1502 143.342 91.3349 141.101 90.8685C142.368 92.2479 143.64 93.6252 145.202 95.3206C142.484 95.9312 141.231 94.1177 139.6 93.3934C137.911 92.6477 136.294 91.7501 134.367 90.7724C133.77 91.6157 133.185 92.442 132.597 93.2758C133.206 94.9998 135.295 95.6858 135.48 98.038C132.415 96.9114 130.376 94.504 127.386 93.5413C126.729 94.2275 126.019 94.9711 125.187 95.8486C125.992 96.8642 126.776 97.8439 127.563 98.8291C127.462 98.986 127.366 99.1408 127.262 99.2922C124.921 98.8082 123.27 96.7807 120.845 95.9807C120.382 96.5243 119.898 97.0946 119.374 97.7052C120.271 98.996 121.079 100.166 122.174 101.747C118.97 101.475 117.537 99.0287 114.998 98.2356C114.539 98.8396 114.037 99.5099 113.519 100.186C114.075 101.185 114.564 102.073 115.082 103.006C113.874 103.81 113.122 102.737 112.07 102.716C110.912 103.7 109.702 104.728 110.806 106.623C108.729 107.821 107.6 105.78 105.868 105.635C103.869 108.027 103.063 111.541 99.8603 113.418C98.6468 111.366 100.442 110.065 100.534 108.308C99.7485 107.814 98.8762 107.271 97.7394 106.556C97.2481 107.465 96.8125 108.259 96.3843 109.057C97.1821 109.957 97.8697 110.731 98.6347 111.594C97.3803 112.863 96.4935 111.227 95.2081 111.488C93.9998 113.901 92.7084 116.47 91.2212 119.437L91.2287 119.44ZM192.889 70.5229C195.509 69.1856 192.482 67.5412 193.415 66.066C195.085 66.1604 194.612 68.2052 195.854 68.8362C196.528 68.4542 197.271 68.0269 198.092 67.5577C181.319 57.3095 164.668 47.1386 148.132 37.0416C148.072 38.8168 148.067 38.8372 149.626 39.3222C151.022 39.7573 152.413 40.1762 153.217 41.8255C151.846 41.6354 150.477 41.4507 148.557 41.1908C150.583 43.5162 153.578 43.6448 154.88 46.0421C153.232 47.6788 151.704 45.5852 150.167 46.0177C150.641 48.2471 151.685 48.817 153.856 47.8812C154.266 48.3519 154.789 48.8104 155.15 49.3806C156.2 51.0542 157.703 51.9144 159.634 52.2198C160.15 52.302 160.659 52.6913 161.077 53.0533C162.54 54.3268 164.01 55.5228 165.676 55.3144C167.565 56.7787 169.196 58.0375 171.023 59.4513C171.437 58.3239 171.711 57.579 172.087 56.5469C173.683 57.9432 174.33 59.5847 174.785 61.2308C176.177 66.2343 177.445 71.2725 178.762 76.2921C178.96 77.0366 179.171 77.7695 179.457 78.7912C180.286 78.2315 180.893 77.8194 181.353 77.5128C180.001 71.7986 178.705 66.33 177.432 60.8584C177.389 60.6638 177.644 60.4047 177.795 60.1171C179.156 60.168 179.505 61.2898 179.807 62.2116C180.91 65.5488 181.914 68.9234 182.914 72.3C183.237 73.388 183.427 74.5204 183.773 76.0409C184.815 75.4371 185.667 74.95 186.659 74.3778C185.855 72.2748 185.033 70.3525 184.384 68.364C183.749 66.4263 182.695 64.4994 183.705 61.827C186.46 65.2465 187.438 69.0539 188.608 72.7629C189.902 72.6716 190.447 72.2769 189.98 71.0886C189.592 70.1063 189.162 69.1276 188.897 68.1105C188.664 67.2243 188.621 66.2839 188.426 64.8303C191.462 66.0923 191.697 68.6554 192.906 70.535L192.889 70.5229ZM170.303 122.017C170.894 121.84 171.64 121.338 171.836 120.809C173.528 116.217 175.106 111.588 176.908 106.438C170.115 107.942 164.261 110.814 157.687 111.868C157.448 116.458 157.213 120.897 156.958 125.803C161.709 124.465 166.024 123.287 170.309 122.015L170.303 122.017ZM67.028 120.687C66.4347 119.379 67.7855 117.16 65.0873 117.204C64.2911 118.534 63.4472 119.95 62.5394 121.459C61.4652 120.876 60.5662 120.393 59.5465 119.839C58.7826 121.026 58.0685 122.131 57.3544 123.237C57.1249 123.157 56.888 123.074 56.6586 122.994C56.8417 121.588 57.0227 120.177 57.2409 118.521C56.6542 118.125 55.9631 117.649 54.9902 116.99C53.6211 119.632 53.1671 122.62 50.7441 124.554C49.1251 123.017 50.7236 121.511 50.4761 119.791C49.9585 119.461 49.256 119.022 48.4512 118.509C46.9068 120.709 46.6515 123.453 44.6387 125.273C43.3725 124.204 44.5937 123.06 44.2445 121.789C43.6848 121.463 42.9519 121.041 42.0683 120.534C41.5783 121.218 41.1522 121.81 40.5808 122.606C40.5279 121.477 40.4896 120.597 40.443 119.484C39.1071 120.865 37.3179 125.544 36.5868 129.253C50.7003 127.217 64.7337 125.199 79.2598 123.104C77.4017 121.56 75.8904 120.305 74.2952 118.976C73.6187 119.807 73.0762 120.468 72.4469 121.243C71.4246 120.714 70.4419 120.208 69.5212 119.734L67.0334 120.685L67.028 120.687ZM171.848 63.9633C171.035 64.1126 170.408 64.2281 169.792 64.3394C168.952 67.4379 171.907 67.8548 173.789 69.6078C172.579 69.6292 171.856 69.6387 171.129 69.6556C171.132 71.4274 172.006 72.7994 173.753 73.7715C173.118 73.8966 172.679 73.9836 171.95 74.1256C172.561 76.6815 173.158 79.1995 173.854 82.1264C175.097 81.4276 176.096 80.8716 177.2 80.2505C176.379 77.16 175.633 74.283 174.841 71.4171C174.137 68.8781 173.18 66.3923 172.71 63.8137C172.273 61.4523 170.873 60.683 168.696 60.3039C168.425 62.8431 170.978 62.4197 171.853 63.9613L171.848 63.9633ZM158.718 105.646C158.575 106.229 158.416 106.725 158.346 107.224C158.285 107.632 158.329 108.057 158.33 108.578C164.517 107.082 170.544 105.622 176.57 104.156C178.576 103.669 178.393 101.906 178.992 100.173C171.865 101.7 165.703 105.032 158.716 105.641L158.718 105.646ZM106.116 153.366C100.804 149.937 95.3779 147.153 89.8253 144.201C89.1701 144.762 88.5433 145.3 87.6611 146.048C92.9153 149.698 98.4745 152.294 103.899 155.643C104.706 154.813 105.301 154.206 106.113 153.374L106.116 153.366ZM81.9702 150.256C81.249 150.693 80.5224 151.132 79.4934 151.756C86.1681 155.124 92.5817 158.362 99.1644 161.685C99.6544 161 100.084 160.401 100.676 159.578C94.2063 156.355 88.1492 153.335 81.9702 150.256ZM102.159 156.601C97.1814 153.77 92.2122 150.93 87.2088 148.147C85.8366 147.385 85.7957 147.457 84.2019 148.862C84.7831 149.261 85.2994 149.684 85.8766 149.992C90.6879 152.582 95.5181 155.139 100.331 157.734C101.339 158.275 102.148 158.456 102.475 157.052C102.361 156.884 102.297 156.685 102.161 156.606L102.159 156.601ZM178.088 98.6239C179.736 98.2546 180.505 97.4203 180.417 95.6149C180.017 95.6745 179.685 95.6835 179.379 95.7758C173.125 97.5708 166.875 99.3895 160.615 101.15C159.655 101.418 158.949 101.7 159.165 102.997C165.608 101.502 171.838 100.02 178.085 98.6314L178.088 98.6239ZM169.528 95.6537C172.954 94.8469 176.375 94.0294 179.816 93.2973C181.356 92.9694 182.448 92.3653 182.419 90.5995C182.292 90.5114 182.131 90.3182 182.045 90.3513C175.521 92.4795 169.006 94.6294 162.489 96.7739C162.407 96.805 162.284 96.8397 162.268 96.8955C162.237 96.9942 162.27 97.1122 162.292 97.4143C164.748 96.8169 167.134 96.2153 169.528 95.6537ZM122.338 173.381C122.792 172.748 123.167 172.219 123.694 171.483C120.697 169.951 117.898 168.512 115.097 167.086C113.816 166.432 113.225 167.503 112.109 168.29C115.624 170.04 118.908 171.673 122.333 173.383L122.338 173.381ZM167.461 77.7063C168.045 80.1605 168.614 82.5401 169.265 85.267C170.558 84.4558 171.556 83.8319 172.643 83.149C171.608 77.86 171.475 77.7243 167.463 77.7117L167.461 77.7063ZM168.642 127.485C169.955 127.182 170.173 126.273 170.204 124.925C169.427 125.135 168.786 125.312 168.152 125.473C164.846 126.315 161.552 127.239 158.217 127.956C156.695 128.283 156.624 128.975 157.068 130.216C160.977 129.292 164.805 128.369 168.642 127.485ZM163.529 89.194C163.131 87.8613 162.739 86.5448 162.294 85.0378C161.106 84.8893 159.924 84.7388 158.461 84.5527C158.853 87.0061 159.207 89.2316 159.646 91.9897C161.117 90.9301 162.229 90.1323 163.529 89.194ZM164.201 87.5079C164.246 87.7393 164.446 87.9363 164.569 88.144C167.519 86.9227 167.989 86.5128 167.51 84.9503C166.544 81.8221 167.008 81.1039 163.023 81.4041C163.437 83.5756 163.805 85.5469 164.203 87.5134L164.201 87.5079ZM94.0059 142.136C93.2833 141.822 92.4995 140.991 91.527 142.364C96.0714 145.279 100.584 148.176 105.1 151.065C105.175 150.906 105.259 150.75 105.334 150.59C101.695 147.589 98.4414 144.068 94.0039 142.131L94.0059 142.136ZM167.102 132.622C167.683 132.45 168.075 131.641 168.942 130.707C167.903 130.719 167.494 130.64 167.131 130.747C163.95 131.69 160.783 132.684 157.598 133.616C156.61 133.907 156.329 134.425 156.767 135.425C160.214 134.511 163.677 133.64 167.102 132.622ZM164.443 138.616C165.94 138.273 165.944 138.284 166.43 136.16C163.168 137.103 160.003 137.971 156.879 138.967C156.513 139.082 156.37 139.876 156.006 140.581C159.166 139.845 161.799 139.223 164.443 138.616ZM128.859 126.764C128.159 127.858 127.524 128.846 126.824 129.94C127.713 130.706 128.427 131.321 129.419 132.178C130.27 130.927 131.025 129.812 131.991 128.392C130.783 127.767 129.945 127.33 128.861 126.769L128.859 126.764ZM43.9864 134.127C45.961 135.099 47.653 135.95 49.3659 136.773C50.3041 137.228 50.8341 136.746 51.2435 135.769C48.0531 133.032 47.6001 132.919 43.9864 134.127ZM156.849 144.036C156.455 144.143 156.179 144.69 155.845 145.035C155.958 145.184 156.064 145.33 156.177 145.48C158.63 145.039 161.101 144.677 163.519 144.095C164.008 143.976 164.301 143.037 164.966 142.063C161.742 142.829 159.283 143.385 156.849 144.036ZM166.658 72.5523C166.299 75.6905 166.6 76.0227 170.655 76.8141C170.355 73.058 170.296 73 166.658 72.5523ZM117.002 134.523C116.56 135.139 116.07 135.823 115.5 136.607C116.582 137.454 117.524 138.194 118.714 139.13C119.37 138.115 119.961 137.193 120.768 135.94C119.308 135.386 118.249 134.99 117 134.517L117.002 134.523ZM130.417 124.422C131.26 125.181 132.004 125.859 132.924 126.688C133.65 125.435 134.282 124.342 135.006 123.083C134.11 122.544 133.401 122.119 132.375 121.499C131.647 122.585 131.086 123.427 130.417 124.422ZM116.685 165.161C116.494 165.054 116.094 165.306 115.708 165.417C117.276 167.066 122.59 170.06 124.438 170.391C124.54 170.203 124.647 170.013 124.749 169.825C122.064 168.261 119.387 166.688 116.685 165.161ZM165.808 80.1091C165.804 76.9977 165.685 76.8634 162.415 76.5667C162.346 79.6188 162.527 79.7983 165.808 80.1091ZM169.183 71.568C169.337 68.7381 169.124 68.5215 165.357 67.8993C165.711 70.8081 165.788 70.8782 169.183 71.568ZM102.936 103.737C101.921 103.112 101.045 102.577 100.005 101.937C99.5715 102.737 99.2253 103.391 98.7817 104.213C99.6901 104.997 100.505 105.698 101.543 106.593C102.079 105.493 102.481 104.675 102.936 103.737ZM123.525 130.866C122.6 130.3 121.811 129.813 120.855 129.228C120.204 130.111 119.651 130.857 118.983 131.758C120.033 132.425 120.902 132.975 121.926 133.621C122.476 132.671 122.947 131.857 123.53 130.864L123.525 130.866ZM164.551 74.8739C164.561 71.8133 164.5 71.7499 161.345 71.4464C161.154 74.3091 162.169 74.7039 164.551 74.8739ZM142.847 183.406C142.933 183.274 143.019 183.141 143.113 183.012C141.735 181.862 140.359 180.717 138.986 179.564C138.013 178.743 137.422 179.293 136.663 180.459C138.812 181.482 140.832 182.443 142.847 183.406ZM134.098 119.523C134.625 119.992 135.181 120.488 136.014 121.219C136.726 119.946 137.338 118.849 138.044 117.591C136.557 116.813 135.243 117.459 134.1 119.528L134.098 119.523ZM156.348 148.999C156.009 149.085 155.826 149.795 155.4 150.499C159.613 149.678 162.101 148.727 162.863 147.644C160.445 148.128 158.378 148.49 156.352 148.991L156.348 148.999ZM164.329 62.8562C164.359 65.2739 164.572 65.4722 167.771 66.007C167.592 63.2982 167.475 63.1875 164.329 62.8562ZM157.099 78.2456C158.212 78.4102 159.133 78.5428 160.073 78.68C160.095 75.8761 159.952 75.7629 156.527 75.8239C156.723 76.6621 156.912 77.4474 157.099 78.2456ZM73.9306 146.925C71.6192 144.926 70.9299 144.829 68.8339 146.302C71.2489 147.797 72.9478 148.005 73.9306 146.925ZM138.963 106.982C139.374 106.123 139.829 105.284 140.292 104.38C138.32 104.488 137.22 105.723 136.476 107.48C137.586 108.385 138.377 108.213 138.966 106.975L138.963 106.982ZM161.48 83.2181C161.896 80.847 160.626 80.3697 157.676 80.4357C157.992 82.042 159.26 82.9695 161.48 83.2181ZM124.355 124.752C123.723 125.553 123.14 126.285 122.412 127.21C123.194 127.694 123.823 128.087 124.734 128.652C125.359 127.767 125.93 126.952 126.658 125.915C125.704 125.435 125.093 125.122 124.355 124.752ZM62.5165 143.039C63.777 144.06 65.0364 144.933 66.6507 145.012C66.8844 145.022 67.1452 144.388 67.6172 143.754C65.7775 143.053 64.534 141.199 62.5111 143.041L62.5165 143.039ZM155.498 69.7374C155.427 71.4255 156.487 72.5237 158.678 73.032C158.667 70.8117 158.459 70.1706 155.498 69.7374ZM78.0973 151.078C78.4936 150.392 78.8322 149.815 79.1632 149.235C77.5935 148.282 76.1877 148.364 74.9456 149.481C76.0162 150.022 76.9947 150.518 78.0952 151.073L78.0973 151.078ZM61.86 119.228C62.1974 117.949 62.5678 116.838 62.7275 115.696C62.7612 115.46 62.0078 115.114 61.6126 114.812C60.4695 116.599 60.5513 118.069 61.8579 119.222L61.86 119.228ZM104.715 100.248C104.912 99.415 105.052 98.8394 105.217 98.1177C104.523 97.5381 103.803 96.9376 102.892 96.1801C102.489 96.8497 102.162 97.3911 101.72 98.1194C102.785 98.8739 103.553 99.419 104.715 100.248ZM161.105 153.281L160.868 152.694L155.421 154.777C155.504 154.994 155.586 155.211 155.677 155.431C157.531 154.821 159.754 155.077 161.105 153.281ZM128.392 122.978C128.909 122.234 129.376 121.552 129.96 120.708C129.367 120.263 128.867 119.883 128.203 119.379C127.56 120.233 127.022 120.955 126.304 121.919C127.19 122.369 127.712 122.629 128.392 122.978ZM160.278 66.5427C159.974 68.6719 161.575 68.83 163.184 69.3017C163.043 67.6327 162.074 66.713 160.278 66.5427ZM107.521 102.648C108.112 103.105 108.631 103.503 109.302 104.023C109.78 103.095 110.158 102.348 110.617 101.452C109.952 101.06 109.39 100.728 108.73 100.334C108.289 101.18 107.933 101.857 107.521 102.648ZM81.4856 140.053C80.2925 138.948 79.1283 138.941 77.993 140.034C79.4064 140.968 80.5706 140.974 81.4856 140.053ZM133.122 115.087C132.754 114.824 132.364 114.551 131.779 114.141C131.126 115.049 130.539 115.87 129.808 116.883C131.161 117.454 132.266 116.856 133.122 115.087ZM110.502 167.433C110.962 166.816 111.352 166.294 111.763 165.745C111.523 165.458 111.402 165.206 111.204 165.095C109.879 164.359 109.134 165.172 108.29 166.247C109.057 166.662 109.714 167.013 110.504 167.438L110.502 167.433ZM55.9986 114.331C56.605 114.844 57.1732 115.323 57.9723 115.999C58.3041 115.015 58.5627 114.245 58.8585 113.361C58.2635 112.943 57.7347 112.567 56.9317 112.011C56.5386 112.981 56.2899 113.598 55.9986 114.331ZM154.908 158.732C158.163 159.252 159.085 158.868 159.547 156.958L154.908 158.732ZM108.267 85.153C107.464 86.4089 107.973 87.6553 109.797 88.8923C111.078 86.6066 108.617 86.5723 108.267 85.153ZM45.1991 119.33C45.4653 118.483 45.6657 117.854 45.9066 117.103C45.1696 116.67 44.5267 116.289 43.5066 115.685C43.1886 116.396 42.9543 116.921 42.6912 117.5C43.6909 118.23 44.3624 118.719 45.2045 119.328L45.1991 119.33ZM154.3 64.2498C154.181 65.6914 155.087 66.5171 157.018 66.7269C157.157 64.7169 155.6 64.6597 154.3 64.2498ZM166.207 60.9761C166.352 58.6408 164.632 58.7083 163.096 57.9909C163.139 60.4908 164.822 60.3752 166.207 60.9761ZM153.717 55.3649C153.909 54.1026 153.157 53.0877 151.459 52.3204C151.333 54.1517 151.908 55.2489 153.717 55.3649ZM74.3144 142.534C75.9664 144.661 76.34 144.761 78.0353 143.199C76.6158 142.785 75.7797 141.216 74.3144 142.534ZM123.917 94.6567C124.942 93.221 124.961 92.0832 123.973 91.2433C122.999 92.5433 122.981 93.6811 123.917 94.6567ZM58.029 140.63C59.9487 142.449 60.2261 142.492 61.7461 140.911C60.3431 140.329 59.2895 139.247 58.029 140.63ZM67.1098 133.703C68.2524 134.773 69.3567 134.769 70.4228 133.691C69.2395 132.752 68.1351 132.756 67.1098 133.703ZM159.371 61.1177C159.374 62.4253 160.189 63.3254 161.814 63.8179C162.108 61.6616 160.769 61.4095 159.371 61.1177ZM105.821 90.6983C104.943 91.879 105.355 93.0636 107.056 94.252C108.427 92.0377 105.935 92.1334 105.821 90.6983ZM155.403 61.3492C155.192 59.9428 154.336 59.1021 152.835 58.8271C153.057 60.2832 153.912 61.1239 155.403 61.3492ZM104.595 163.864C106.224 165.701 106.437 165.675 107.811 163.516C106.562 162.136 105.59 162.924 104.595 163.864ZM130.456 88.5713C130.091 89.1456 129.497 89.6711 129.55 90.117C129.62 90.7237 130.179 91.2743 130.79 92.2708C131.379 91.0329 131.73 90.2957 132.109 89.4986C131.482 89.142 131.049 88.9037 130.461 88.5693L130.456 88.5713ZM101.092 162.47C101.676 162.843 102.235 163.201 102.976 163.675C103.428 162.925 103.811 162.3 104.325 161.451C103.115 161.135 102.037 161.475 101.092 162.47ZM111.704 98.5755C112.518 97.411 112.434 96.4883 111.453 95.8073C110.627 96.9062 110.71 97.8289 111.704 98.5755ZM56.4949 138.47C55.3463 137.611 54.257 136.81 52.8796 138.163C54.4289 139.323 55.634 139.425 56.4949 138.47ZM74.9903 136.374C73.969 135.642 72.9901 135.73 72.0537 136.639C73.1208 137.383 74.0997 137.294 74.9903 136.374ZM112.293 83.4642C112.621 82.3821 111.818 81.3015 109.886 80.2224C109.72 82.3548 111.342 82.567 112.293 83.4642ZM79.5402 145.997C80.4706 146.946 81.4499 146.897 82.4782 145.849C81.2872 144.652 80.3682 144.848 79.5402 145.997ZM157.973 55.9179C157.936 57.6094 158.95 58.0355 160.53 58.2826C160.351 56.4187 159.309 56.0655 157.973 55.9179ZM112.861 157.031C112.744 156.92 112.548 156.896 112.187 156.748C111.587 157.338 110.925 157.995 110.252 158.656C111.169 159.387 112.189 159.044 113.313 157.628C113.168 157.429 113.043 157.198 112.859 157.026L112.861 157.031ZM66.131 137.252C65.1814 136.198 64.2115 136.126 63.2213 137.035C64.2907 137.719 65.1677 138.372 66.131 137.252ZM53.9333 101.49C53.7106 102.028 53.3476 102.509 53.4643 102.7C53.8817 103.386 54.4526 103.969 55.1776 104.841C56.4444 102.76 54.9418 102.421 53.9333 101.49ZM118.491 162.768C119.085 164.386 120.727 164.554 121.928 165.306C120.978 164.172 120.147 162.843 118.491 162.768ZM110.152 155.048C108.097 154.907 107.785 155.164 107.065 157.34C108.622 157.254 109.054 155.946 110.152 155.048ZM58.3133 134.42C59.5499 135.736 60.357 135.248 61.2608 134.069C59.9013 132.334 59.3007 133.769 58.3133 134.42ZM49.8536 114.606C49.1081 116.003 50.286 116.354 51.2482 117.148C51.6056 115.851 51.1408 115.004 49.8536 114.606ZM127.481 173.377C126.189 172.306 125.62 173.369 124.771 174.333C125.939 174.897 126.843 174.578 127.481 173.377ZM71.3774 139.793C70.4288 139.1 69.719 138.154 68.0475 139.42C69.3363 139.996 70.0355 141.288 71.3774 139.793ZM140.53 113.435C139.78 112.417 139.173 112.649 138.59 113.4C137.98 114.192 138.404 114.651 139.441 115.187C139.841 114.543 140.192 113.98 140.53 113.435ZM114.88 78.7412C114.675 76.4027 114.461 76.2485 112.415 77.0062C113.305 77.6287 113.98 78.11 114.88 78.7412ZM117.837 94.0434C116.709 94.9466 116.595 95.7359 118.137 96.6C118.699 95.5776 118.598 94.7254 117.837 94.0434ZM58.9977 105.927C58.0897 107.094 58.4169 107.901 59.7525 108.583C60.7229 107.287 60.3789 106.517 58.9977 105.927ZM104.675 84.0787C104.396 82.5021 103.637 81.9657 102.017 81.8709C102.509 83.4347 103.497 83.6286 104.675 84.0787ZM48.0975 108.064C48.8326 107.062 49.303 106.18 47.5753 105.269C46.8776 106.499 46.4693 107.413 48.0975 108.064ZM52.5528 111.38C53.241 110.537 53.0323 109.693 51.9265 108.849C50.9102 110.188 51.496 110.859 52.5528 111.38ZM109.373 68.322C110.052 69.479 111.005 69.3879 111.9 69.4555C111.488 68.296 110.72 67.9621 109.373 68.322ZM49.9576 98.0956C49.337 99.0722 48.8676 99.8917 50.4205 100.46C51.1744 99.5065 51.1933 98.7599 49.9576 98.0956ZM67.1546 113.09C66.2531 114.112 66.3108 114.848 67.6412 115.451C68.4965 114.422 68.4095 113.691 67.1546 113.09ZM70.9271 116.375C70.0027 117.418 70.0963 118.134 71.4733 118.794C71.962 117.7 72.0672 116.952 70.9271 116.375ZM61.9633 99.3692C61.3573 99.7666 61.014 100.347 60.9334 101.111C61.7437 100.739 62.087 100.159 61.9633 99.3692ZM45.6035 111.112C45.3496 112.17 45.8933 112.676 47.2347 112.631C46.7235 112.156 46.2103 111.675 45.6035 111.112ZM116.507 85.4004C115.491 86.6588 116.268 87.1631 117.286 87.78C118.216 86.2627 117.494 85.8368 116.507 85.4004ZM63.8959 112.075C64.6555 111.169 64.7578 110.397 63.3904 109.746C62.635 110.873 62.5748 111.642 63.8959 112.075ZM133.534 111.631C134.502 111.627 135.06 111.625 135.624 111.62C135.54 111.062 135.465 110.507 135.382 109.948C135.149 109.957 134.91 109.967 134.68 109.981C134.403 110.379 134.126 110.776 133.536 111.636L133.534 111.631ZM120.969 88.8319C120.253 89.5097 119.541 90.0366 120.78 91.2464C121.431 90.3639 122.103 89.7653 120.969 88.8319ZM158.037 162.351C157.034 162.796 156.362 163.103 155.693 163.402C155.76 163.594 155.826 163.78 155.893 163.972C156.73 163.969 157.582 164.003 158.039 162.356L158.037 162.351ZM114.424 91.1484C114.201 91.0351 113.773 91.3292 113.436 91.4394C113.659 91.9569 113.882 92.4744 114.204 93.2207C115.34 92.0968 115.16 91.5131 114.424 91.1484ZM85.9291 142.168C84.5775 141.542 84.1594 142.528 83.1701 143.304C84.9878 144.175 85.2484 142.988 85.9291 142.168ZM51.9667 84.2927C52.5519 83.9384 53.2009 83.5722 52.7288 82.7276C52.6374 82.5699 52.2248 82.4171 52.0739 82.4935C51.319 82.8753 50.9076 83.4241 51.398 84.2678C51.6521 84.2825 51.8557 84.36 51.9721 84.2906L51.9667 84.2927ZM130.316 83.5428C129.85 82.3581 129.099 81.964 128.062 82.3606C128.855 82.7779 129.446 83.0865 130.316 83.5428ZM82.2415 136.278C82.1544 136.473 82.0653 136.663 81.9783 136.858C82.559 137.58 83.1785 138.225 84.8851 137.554C83.7275 136.996 82.9882 136.639 82.2415 136.278ZM141.67 111.477C142.255 110.7 142.649 110.17 143.05 109.644L142.479 109.191C141.535 109.403 140.948 109.833 141.672 111.482L141.67 111.477ZM60.4521 91.1124C60.4361 90.957 60.0704 90.6993 59.8837 90.7147C58.8899 90.7966 58.9735 91.535 58.9402 92.374C60.1576 92.4055 60.5397 91.9425 60.4521 91.1124ZM53.3814 92.4434C53.3146 92.3012 52.7577 92.2097 52.7235 92.2663C52.4534 92.73 52.2625 93.2379 52.0395 93.727C53.2748 93.7081 53.8047 93.3067 53.3814 92.4434ZM109.439 161.763C109.476 161.761 109.507 160.948 109.453 160.937C108.969 160.843 108.471 160.841 107.978 160.818C107.952 161.139 107.931 161.457 107.904 161.778C108.417 161.787 108.931 161.814 109.434 161.765L109.439 161.763ZM55.6025 88.9101C56.0124 88.9583 56.2222 89.0521 56.3203 88.9835C57.0365 88.517 57.4425 87.9703 56.2211 86.791C55.9368 87.7695 55.7732 88.3167 55.6025 88.9101ZM127.744 86.8251C127.349 86.6843 127.144 86.5389 127.063 86.5884C126.427 86.9871 126.028 87.4876 127.406 88.638C127.52 88.0416 127.631 87.4398 127.744 86.8251ZM57.5172 96.4347C57.2886 96.373 56.8935 96.201 56.8647 96.2556C56.6147 96.6742 56.4289 97.1305 56.228 97.5801C56.512 97.6889 56.8034 97.8012 57.0873 97.91C57.2295 97.4208 57.3771 96.9294 57.5172 96.4347ZM113.331 163.493C113.369 163.379 113.205 163.081 113.176 163.086C112.726 163.177 112.281 163.298 111.582 163.484C112.548 164.271 113.046 164.322 113.326 163.495L113.331 163.493ZM154.523 167.41C154.844 167.697 154.952 167.88 155.054 167.871C155.709 167.845 156.402 167.822 156.366 166.574C155.673 166.889 155.146 167.122 154.521 167.404L154.523 167.41ZM104.633 76.9005C104.502 77.0936 104.365 77.2887 104.234 77.4818C104.726 77.8094 105.22 78.1424 105.711 78.47C105.839 78.2844 105.964 78.1063 106.092 77.9207C105.607 77.5782 105.118 77.2431 104.633 76.9005ZM122.342 77.5089C122.445 77.3703 122.542 77.2339 122.644 77.0953C122.223 76.7591 121.805 76.4284 121.39 76.0901C121.257 76.2961 121.117 76.4987 120.985 76.7047C121.441 76.9714 121.892 77.2401 122.348 77.5068L122.342 77.5089ZM114.096 161.398C115.608 161.435 116.039 160.923 116.226 160.112C116.054 159.954 115.882 159.796 115.709 159.638C115.271 160.117 114.833 160.595 114.096 161.398ZM146.283 103.102C147.24 102.877 147.933 102.403 148.361 101.68C148.241 101.545 148.118 101.419 147.998 101.284C147.535 101.778 147.069 102.267 146.283 103.102ZM108.834 73.3122C108.931 73.1941 109.027 73.0705 109.125 72.9524C108.701 72.5924 108.285 72.2358 107.862 71.8759C107.726 72.0581 107.593 72.2458 107.458 72.428C107.919 72.7238 108.378 73.0143 108.834 73.3122ZM93.2076 106.842C93.1634 106.84 93.051 107.424 93.096 107.444C93.4407 107.598 93.8168 107.671 94.1849 107.773C94.2398 107.559 94.2948 107.346 94.3889 106.974C93.9361 106.911 93.5729 106.839 93.2055 106.837L93.2076 106.842ZM95.6876 101.451C95.6035 101.459 95.5702 101.875 95.5139 102.102C95.8975 102.179 96.2806 102.287 96.6684 102.294C96.7384 102.298 96.8221 101.9 96.9595 101.512C96.4546 101.475 96.0656 101.4 95.693 101.449L95.6876 101.451ZM69.3857 109.534C69.2139 109.426 69.0474 109.316 68.8756 109.207C68.5936 109.607 68.317 110.005 68.0329 110.399C68.2647 110.534 68.4932 110.677 68.725 110.812L69.3857 109.534ZM133.232 178.652C134.083 178.604 134.616 178.156 134.83 177.308C134.364 177.697 133.9 178.092 133.232 178.652ZM65.4984 104.162C65.4984 104.162 65.0975 104.023 64.883 103.95C64.7284 104.407 64.5717 104.858 64.4171 105.315C64.6349 105.38 64.8581 105.444 65.0738 105.505C65.2217 105.063 65.3805 104.617 65.493 104.164L65.4984 104.162ZM104.55 159.619C104.845 159.693 105.215 159.912 105.416 159.804C105.628 159.692 105.687 159.278 105.809 158.995C105.535 158.882 105.264 158.774 104.836 158.596C104.711 159.048 104.628 159.335 104.545 159.621L104.55 159.619ZM76.204 132.822C76.6768 133.668 77.3028 133.984 78.082 133.769C77.466 133.458 76.9645 133.202 76.204 132.822ZM145.029 106.663C145.233 106.448 145.302 106.111 145.435 105.824C145.162 105.792 144.847 105.651 144.629 105.747C144.346 105.868 144.144 106.169 143.639 106.635C144.59 106.669 144.929 106.776 145.029 106.663ZM70.9679 105.5C70.9776 105.639 71.2861 105.763 71.4588 105.89C71.625 105.658 71.7988 105.43 71.965 105.199C71.7728 105.086 71.5751 104.975 71.3337 104.832C71.1745 105.098 70.9558 105.305 70.9679 105.5ZM41.8644 114.753C41.7424 114.694 41.6151 114.637 41.4952 114.584C41.2601 115.09 41.0249 115.596 40.7898 116.102C40.9764 116.168 41.165 116.238 41.3461 116.306C41.52 115.786 41.6905 115.273 41.8644 114.753ZM101.289 88.7227C101.375 88.6087 101.462 88.4947 101.547 88.3753C101.209 88.076 100.869 87.7712 100.536 87.4697C100.403 87.6574 100.266 87.8525 100.133 88.0402C100.517 88.2659 100.902 88.4916 101.286 88.7173L101.289 88.7227ZM67.0415 99.8626C66.9747 99.7204 66.4903 99.6074 66.4039 99.6902C66.2015 99.8918 66.133 100.216 66.0091 100.494C66.2822 100.607 66.5553 100.72 67.064 100.929C67.0688 100.405 67.1523 100.087 67.0415 99.8626Z" fill="#333333"/>
<path d="M140.343 162.14C141.289 160.486 139.832 160.105 138.898 159.108C138.271 159.857 137.748 160.486 137.222 161.11C136.479 161.394 135.959 162.357 134.885 161.953C134.932 161.588 134.892 161.305 135.001 161.102C139.401 152.821 145.144 145.449 150.748 137.994C151.066 137.574 151.658 137.367 152.636 136.725C152.041 141.016 149.329 143.625 147.762 146.853C148.277 147.389 148.745 147.881 149.239 148.394C149.996 147.887 150.653 147.443 151.522 146.856C151.28 150.173 149.069 152.124 147.793 154.278C147.848 155.704 149.394 156.579 148.355 158.088C147.508 157.773 146.666 157.455 145.717 157.103C145.106 158.039 144.55 158.891 143.966 159.786C144.859 160.724 145.558 161.463 146.253 162.191C148.135 160.614 148.68 158.107 151.088 156.932C151.022 159.927 148.893 161.704 147.898 164.122C148.867 165.162 149.8 166.172 150.873 167.321C149.674 170.227 148.719 173.32 145.21 175.482C145.875 173.761 146.33 172.581 146.803 171.362C145.852 170.484 145.027 169.724 144.21 168.968C143.489 169.536 142.913 169.98 141.861 170.804C142.324 169.397 142.585 168.602 142.852 167.773C141.631 166.661 140.776 165.075 139.096 165.717C138.695 164.864 138.335 164.151 138.027 163.411C137.707 162.639 137.447 161.844 137.159 161.059C138.201 161.412 139.243 161.766 140.349 162.138L140.343 162.14ZM148.984 167.838C148.163 167.121 147.416 166.468 146.689 165.833C144.74 167.641 144.787 167.846 147.554 169.882C147.985 169.27 148.41 168.66 148.984 167.838ZM144.383 155.613C143.823 155.156 143.387 154.794 142.743 154.264C142.129 155.064 141.576 155.779 140.891 156.668C141.518 157.236 142.048 157.711 142.736 158.324C143.353 157.305 143.829 156.52 144.381 155.607L144.383 155.613ZM146.182 152.893C146.754 152.097 147.242 151.425 147.821 150.614C147.189 150.147 146.669 149.762 146.01 149.275C145.447 150.093 144.977 150.782 144.347 151.7C145.099 152.189 145.585 152.5 146.18 152.887L146.182 152.893ZM142.091 162.534C141.747 163.498 142.357 164.671 143.921 166.053C145.18 164.099 145.019 163.806 142.091 162.534Z" fill="#333333"/>
<path d="M148.488 179.229C149.044 178.246 149.598 177.258 150.154 176.275C149.976 176.169 149.799 176.063 149.624 175.962C148.475 176.581 148.402 177.883 147.918 178.925C148.106 179.027 148.3 179.127 148.488 179.229Z" fill="#333333"/>
<path d="M151.603 81.0123C150.814 71.622 149.12 62.385 146.31 53.3638C146.687 62.8307 147.952 72.1323 151.603 81.0123Z" fill="#333333"/>
<path d="M142.627 57.4936C141.488 60.7373 144.349 75.8527 146.544 79.6604C147.572 77.8633 147.593 77.3517 145.755 68.5307C144.98 64.8007 144.628 60.9221 142.627 57.4936Z" fill="#333333"/>
<path d="M138.554 64.4689C138.101 67.7048 139.157 70.5132 140.157 73.5849C141.33 70.9494 140.498 66.3845 138.554 64.4689Z" fill="#333333"/>
<path d="M135.102 70.5356C136.178 67.6637 135.955 66.283 134.322 64.8571C133.428 66.6465 133.522 67.412 135.102 70.5356Z" fill="#333333"/>
<path d="M129.766 64.1205C129.99 65.29 130.219 66.4574 130.442 67.6269C130.646 67.5923 130.851 67.5577 131.057 67.5285C131.622 66.2439 131.463 65.0495 130.532 63.9457L129.763 64.128L129.766 64.1205Z" fill="#333333"/>
<path d="M126.788 65.7068C127.986 64.7142 128.036 63.9185 127.169 63.2932C127.006 63.1754 126.311 63.4536 126.314 63.4773C126.439 64.225 126.616 64.9649 126.782 65.7089L126.788 65.7068Z" fill="#333333"/>
<path d="M87.568 96.4488C86.6841 95.2585 85.7968 94.0756 84.632 92.5081C84.4478 93.6347 84.0927 94.3794 84.277 94.9426C84.7094 96.2683 85.2067 97.65 86.035 98.7436C87.4579 100.629 87.4884 101.244 85.8285 103.029C85.1492 103.754 84.7378 104.726 84.2266 105.598C84.1138 105.791 84.0875 106.03 84.0217 106.248C83.2663 106.028 82.6171 105.841 82.3994 105.775C81.9724 104.659 81.7898 103.84 81.3745 103.16C79.0328 99.3277 76.6073 95.5521 74.2711 91.7176C73.5887 90.5993 72.9859 89.494 71.3131 89.5063C72.244 87.684 71.5394 86.3941 70.6314 85.157C69.9034 85.2677 69.1882 85.3797 68.2084 85.5307C69.1751 82.4211 70.9085 80.1305 72.659 77.8519C72.7634 77.7188 72.924 77.5704 73.0733 77.5382C73.563 77.4379 74.3301 77.1694 74.5026 77.3767C74.8318 77.7665 75.0595 78.5244 74.907 78.9865C74.6392 79.7972 74.0945 80.5336 73.5857 81.2501C72.492 82.7929 72.475 82.7807 73.9521 84.4338C75.1963 83.4796 75.6521 81.5036 77.7501 81.3847C78.6983 84.0104 76.485 85.4036 75.5003 87.5074C76.0972 88.4347 76.7585 89.4492 77.5723 90.716C78.0387 89.9537 78.2931 89.5954 78.4876 89.2104C78.8631 88.4704 78.8473 87.3892 80.0946 87.4341C81.329 87.4777 81.3026 88.4321 81.5472 89.2829C81.7653 90.032 82.1193 90.7789 82.5676 91.4151C82.8082 91.7518 83.3834 91.8425 83.9312 92.1051C83.7428 90.8166 83.5865 89.758 83.4323 88.7049C83.6108 88.5869 83.7915 88.4744 83.97 88.3564C84.5026 88.6932 85.2192 88.91 85.5341 89.3922C86.8855 91.4475 87.7153 93.7147 88.139 96.1062C87.9475 96.2229 87.7507 96.3416 87.5613 96.4638L87.568 96.4488ZM82.989 102.232C85.0005 100.506 84.9687 100.114 82.4261 96.8123C80.7491 99.0068 82.6991 100.467 82.989 102.232ZM80.4326 95.4498C81.048 94.4814 80.8077 93.2085 79.7116 91.6313C78.7338 93.3472 78.738 93.358 80.4326 95.4498Z" fill="#333333"/>
<path d="M66.6957 80.909C69.4796 80.4718 70.7515 78.9727 71.6949 77.183C71.8968 76.8013 71.6803 75.8777 71.3437 75.615C71.0092 75.3577 70.0709 75.4059 69.7495 75.7027C68.3547 76.9941 67.3372 78.5575 66.6903 80.911L66.6957 80.909Z" fill="#333333"/>
<path d="M88.071 105.302C85.6528 106.42 85.0842 108.377 84.1848 110.249C86.5208 110.07 87.9226 108.391 88.071 105.302Z" fill="#333333"/>
<path d="M89.4319 90.9581C89.22 90.014 89.0752 89.0505 88.7549 88.1479C88.6587 87.8802 88.0794 87.7787 87.7264 87.6031C87.539 88.0227 87.0854 88.5751 87.2128 88.8432C87.6287 89.7031 88.2584 90.4563 88.8035 91.2481C89.0141 91.149 89.2214 91.0573 89.4319 90.9581Z" fill="#333333"/>
<path d="M65.6646 74.6554C65.1963 75.3316 64.738 75.9852 64.2521 76.6805C65.1111 77.5945 65.6504 77.0714 66.0988 76.5707C66.6262 75.9838 66.7898 75.3559 65.6625 74.65L65.6646 74.6554Z" fill="#333333"/>
</g>
<defs>
<clipPath id="clip0_79_616">
<rect width="198.671" height="175.83" fill="white" transform="translate(0 70.9646) rotate(-20.9281)"/>
</clipPath>
</defs>
</svg>
