<svg width="171" height="161" viewBox="0 0 171 161" fill="none" xmlns="http://www.w3.org/2000/svg">
<path d="M80.8908 6.49055C87.3508 4.4239 93.7906 2.2718 100.521 1.18891C107.582 0.0604022 114.368 0.453745 120.647 4.39581C126.025 7.76912 131.54 10.916 136.887 14.3201C147.513 21.0852 158.065 27.9785 168.678 34.7736C169.828 35.5078 170.267 36.3778 169.879 37.6382C169.188 39.9092 168.592 42.2182 167.728 44.4252C157.655 70.2024 147.597 95.9864 137.416 121.724C132.518 134.097 127.378 146.376 122.334 158.693C121.622 160.438 121.019 160.743 119.303 160.076C117.661 159.436 116.043 158.732 114.465 157.95C97.241 149.433 80.0309 140.886 62.8141 132.355C43.703 122.882 24.5852 113.425 5.48083 103.938C4.45939 103.427 3.4727 102.829 2.53861 102.174C-0.0834873 100.337 -0.25728 99.9317 0.702558 96.918C3.88969 86.9266 7.00604 76.9125 10.3926 66.9878C13.2073 58.7355 16.3705 50.5985 19.3417 42.3983C19.6353 41.5901 19.7979 40.683 19.7753 39.8281C19.7362 38.296 20.2794 37.0197 21.3537 36.0435C23.041 34.5098 24.7356 32.9298 26.6182 31.6631C39.5534 22.9389 53.7146 16.6411 68.1671 10.9588C72.4017 9.45742 76.6056 7.8435 80.8791 6.47636L80.8908 6.49055ZM100.697 143.458C100.308 143.222 99.9139 142.987 99.5273 142.756C99.4366 143.12 99.3405 143.486 99.2498 143.85C98.4451 144.183 97.6349 144.517 96.8302 144.85C96.8331 145.085 96.8393 145.312 96.8422 145.547C97.5638 145.793 98.373 146.366 98.9887 146.205C99.7732 145.998 100.355 145.179 99.9004 144.154C100.166 143.922 100.431 143.69 100.697 143.458ZM97.2532 103.099C95.9808 102.225 94.9677 101.525 93.7976 100.724C93.0201 101.891 92.4476 102.75 91.8974 103.569C92.454 104.456 92.9391 105.221 93.6515 106.353C92.7084 106.291 92.2296 106.306 91.7686 106.222C91.3463 106.141 90.945 105.953 90.395 105.766C89.1057 107.203 87.8251 108.631 86.4974 110.114C85.5222 108.343 83.8108 108.06 82.1963 107.428C81.0649 108.402 79.9674 109.349 78.4821 110.632C78.8372 108.197 79.8562 106.671 80.8627 105.192C86.8674 96.3788 92.9253 87.6069 98.964 78.8175C99.4445 78.1243 99.9079 77.4191 100.517 76.509C98.7322 76.4894 97.8724 77.3277 97.0454 78.4143C91.8481 85.3101 86.6391 92.1916 81.3757 99.0443C79.9276 100.928 78.3123 102.682 76.7503 104.479C76.4267 104.851 76.0095 105.141 75.4176 105.299C80.6071 96.3685 86.5813 87.9952 93.0312 79.4524C90.7841 79.6035 89.3517 80.2445 88.1217 81.8208C83.8997 87.2376 79.5561 92.5643 75.2371 97.9064C74.756 98.5005 74.1268 98.9834 73.3782 99.3815C76.4917 93.73 80.1153 88.4053 83.9914 82.6361C81.7093 83.1671 80.0128 83.6047 78.815 85.3302C76.7587 88.3035 74.5979 91.1987 72.4372 94.0939C71.5504 95.2842 70.5571 96.391 69.4635 97.4304C70.9186 93.1773 74.2281 90.0043 76.2842 85.6332C74.1901 86.1359 72.503 86.2405 71.4919 88.373C70.0742 91.3755 68.004 93.9875 64.999 95.845C66.3426 93.4611 67.6937 91.0805 69.2012 88.4103C67.7803 88.3014 66.874 89.0021 66.0057 89.2658C65.3491 90.5544 64.7482 91.7286 64.1472 92.9028C63.977 92.8312 63.8046 92.7542 63.6344 92.6826C63.7983 91.893 63.959 91.1109 64.1907 89.9785L57.6757 92.47C67.7488 102.597 77.824 112.729 87.8992 122.861C98.0168 133.039 108.133 143.23 118.537 153.702C120.583 124.788 122.595 96.2907 124.612 67.7912C124.371 67.6787 124.132 67.5587 123.89 67.4461C114.877 79.3425 105.727 91.1419 97.2424 103.103L97.2532 103.099ZM119.05 34.1077C117.21 25.1874 115.336 16.2742 113.504 7.48773C110.494 9.80095 107.702 12.3783 104.521 14.2967C98.8707 17.7002 93.0108 20.7675 87.1658 23.8414C84.2836 25.3537 81.2391 26.5553 78.2689 27.9024C77.9032 28.0671 77.554 28.2752 77.2217 28.4458C93.0596 39.4805 108.763 50.4237 124.628 61.4793C122.735 52.1757 120.907 43.1392 119.05 34.1077ZM24.7627 43.1706C34.5231 57.7597 44.2911 72.352 54.0715 86.977C54.0952 86.9741 54.1877 86.9884 54.2657 86.9648C54.3436 86.9412 54.45 86.8944 54.4713 86.8365C59.8114 68.6658 65.1439 50.4917 70.469 32.3142C70.5328 32.0911 70.457 31.828 70.4404 31.3622C55.4545 36.4781 40.8561 42.6077 24.7606 43.1652L24.7627 43.1706ZM47.4986 32.0342C47.5544 32.2613 47.6103 32.4885 47.6681 32.7211C46.4642 33.0821 45.2847 33.5394 44.0577 33.7912C37.9291 35.0352 31.7895 36.2338 25.6498 37.4324C24.4532 37.6663 23.1407 37.7272 22.9583 39.4433C24.1074 40.4825 25.5024 40.2473 26.7214 40.0234C32.0007 39.0606 37.3285 38.2409 42.5073 36.8692C58.0689 32.7385 72.932 26.7003 87.3771 19.6664C94.4998 16.1969 101.571 12.5608 107.74 7.47423C108.861 6.55478 109.786 5.39957 111.081 4.05924C108.969 3.13362 107.214 3.28901 105.563 3.58499C100.715 4.45733 95.8905 5.48844 91.0603 6.47205C90.8182 6.52117 90.5979 6.6924 89.9181 7.02691C94.1267 6.95203 97.8827 5.80764 101.735 7.25445C101.153 7.42124 100.58 7.64638 99.9913 7.74733C91.1354 9.25154 82.2705 10.7157 73.4162 12.2566C72.0817 12.4874 70.8066 13.0682 69.5576 13.7012C76.9683 13.3895 84.2255 11.4902 91.6934 12.0265C90.7446 13.1846 89.4479 13.2705 88.2009 13.4864C78.3886 15.17 68.5824 16.8699 58.7651 18.5243C55.5085 19.0739 52.5198 20.2914 49.6843 21.9909C59.7156 20.6522 69.5607 17.9496 80.2386 17.6683C79.2956 19.0852 78.2932 19.0957 77.4105 19.2407C70.9749 20.2667 64.5253 21.2234 58.0967 22.284C53.667 23.0151 49.2607 23.9049 44.8354 24.6964C41.4453 25.3032 38.6749 27.189 35.8137 29.0163C45.7106 26.9524 55.5924 24.8819 65.6578 23.9899C65.7283 24.1742 65.7859 24.3572 65.8509 24.5436C65.4001 24.7781 64.9766 25.1327 64.4977 25.2289C57.7656 26.6167 51.0278 27.9571 44.2991 29.3375C40.1574 30.1882 36.0227 31.0736 31.8826 31.961C29.7753 32.4128 28.0173 33.4206 26.4023 35.4361C33.6767 34.1018 40.3987 31.6802 47.4953 32.0417L47.4986 32.0342ZM59.2287 88.4404L120.878 64.8643C120.893 64.6781 120.914 64.4899 120.93 64.3037C119.028 63.5213 117.128 62.7445 115.229 61.9546C113.288 61.1502 111.342 60.3349 109.101 59.8685C110.368 61.2479 111.64 62.6252 113.202 64.3206C110.484 64.9312 109.231 63.1177 107.6 62.3934C105.911 61.6477 104.294 60.7501 102.367 59.7724C101.77 60.6157 101.185 61.442 100.597 62.2758C101.206 63.9998 103.295 64.6858 103.48 67.038C100.415 65.9114 98.3762 63.504 95.3862 62.5413C94.7292 63.2275 94.0195 63.9711 93.187 64.8486C93.9917 65.8642 94.7764 66.8439 95.5632 67.8291C95.4617 67.986 95.3656 68.1408 95.2619 68.2922C92.921 67.8082 91.2696 65.7807 88.8451 64.9807C88.382 65.5243 87.898 66.0946 87.3736 66.7052C88.271 67.996 89.0787 69.1658 90.1744 70.7473C86.9702 70.4754 85.5375 68.0287 82.9975 67.2356C82.5389 67.8396 82.0373 68.5099 81.5193 69.1863C82.0753 70.1852 82.564 71.0732 83.0822 72.0057C81.8736 72.8096 81.1216 71.7366 80.07 71.7163C78.9116 72.6998 77.7018 73.7278 78.8056 75.6231C76.7289 76.8211 75.6004 74.78 73.8675 74.635C71.8685 77.0272 71.0627 80.5412 67.8603 82.4183C66.6468 80.3661 68.4416 79.0647 68.5341 77.3083C67.7485 76.8135 66.8762 76.2711 65.7394 75.5565C65.2481 76.465 64.8125 77.2591 64.3843 78.0566C65.1821 78.9568 65.8697 79.7314 66.6347 80.5944C65.3803 81.8632 64.4935 80.2266 63.2081 80.4883C61.9998 82.9012 60.7084 85.4702 59.2212 88.4371L59.2287 88.4404ZM160.889 39.5229C163.509 38.1856 160.482 36.5412 161.415 35.066C163.085 35.1604 162.612 37.2052 163.854 37.8362C164.528 37.4542 165.271 37.0269 166.092 36.5577C149.319 26.3095 132.668 16.1386 116.132 6.04163C116.072 7.81678 116.067 7.83718 117.626 8.3222C119.022 8.75733 120.413 9.1762 121.217 10.8255C119.846 10.6354 118.477 10.4507 116.557 10.1908C118.583 12.5162 121.578 12.6448 122.88 15.0421C121.232 16.6788 119.704 14.5852 118.167 15.0177C118.641 17.2471 119.685 17.817 121.856 16.8812C122.266 17.3519 122.789 17.8104 123.15 18.3806C124.2 20.0542 125.703 20.9144 127.634 21.2198C128.15 21.302 128.659 21.6913 129.077 22.0533C130.54 23.3268 132.01 24.5228 133.676 24.3144C135.565 25.7787 137.196 27.0375 139.023 28.4513C139.437 27.3239 139.711 26.579 140.087 25.5469C141.683 26.9432 142.33 28.5847 142.785 30.2308C144.177 35.2343 145.445 40.2725 146.762 45.2921C146.96 46.0366 147.171 46.7695 147.457 47.7912C148.286 47.2315 148.893 46.8194 149.353 46.5128C148.001 40.7986 146.705 35.33 145.432 29.8584C145.389 29.6638 145.644 29.4047 145.795 29.1171C147.156 29.168 147.505 30.2898 147.807 31.2116C148.91 34.5488 149.914 37.9234 150.914 41.3C151.237 42.388 151.427 43.5204 151.773 45.0409C152.815 44.4371 153.667 43.95 154.659 43.3778C153.855 41.2748 153.033 39.3525 152.384 37.364C151.749 35.4263 150.695 33.4994 151.705 30.827C154.46 34.2465 155.438 38.0539 156.608 41.7629C157.902 41.6716 158.447 41.2769 157.98 40.0886C157.592 39.1063 157.162 38.1276 156.897 37.1105C156.664 36.2243 156.621 35.2839 156.426 33.8303C159.462 35.0923 159.697 37.6554 160.906 39.535L160.889 39.5229ZM138.303 91.0166C138.894 90.8402 139.64 90.3375 139.836 89.8092C141.528 85.217 143.106 80.5875 144.908 75.4376C138.115 76.942 132.261 79.8144 125.687 80.8684C125.448 85.458 125.213 89.8967 124.958 94.8029C129.709 93.4646 134.024 92.2867 138.309 91.0145L138.303 91.0166ZM35.028 89.687C34.4347 88.3793 35.7855 86.1604 33.0873 86.2045C32.2911 87.5341 31.4472 88.9503 30.5394 90.4592C29.4652 89.876 28.5662 89.3935 27.5465 88.8391C26.7826 90.0258 26.0685 91.1315 25.3544 92.2371C25.1249 92.1571 24.888 92.0737 24.6586 91.9937C24.8417 90.5879 25.0227 89.1767 25.2409 87.5214C24.6542 87.1245 23.9631 86.6495 22.9902 85.9902C21.6211 88.6324 21.1671 91.6204 18.7441 93.5535C17.1251 92.0168 18.7236 90.5108 18.4761 88.7913C17.9585 88.4612 17.256 88.0216 16.4512 87.5092C14.9068 89.709 14.6515 92.4533 12.6387 94.273C11.3725 93.2041 12.5937 92.0598 12.2445 90.7893C11.6848 90.4628 10.9519 90.041 10.0683 89.534C9.57833 90.2184 9.15224 90.81 8.58077 91.6064C8.52793 90.4772 8.48961 89.5972 8.44299 88.4843C7.10713 89.865 5.31794 94.544 4.58675 98.2532C18.7003 96.217 32.7337 94.1989 47.2598 92.1043C45.4017 90.5597 43.8904 89.3048 42.2952 87.9765C41.6187 88.8068 41.0762 89.4678 40.4469 90.2427C39.4246 89.7142 38.4419 89.2078 37.5212 88.7335L35.0334 89.685L35.028 89.687ZM139.848 32.9633C139.035 33.1126 138.408 33.2281 137.792 33.3394C136.952 36.4379 139.907 36.8548 141.789 38.6078C140.579 38.6292 139.856 38.6387 139.129 38.6556C139.132 40.4274 140.006 41.7994 141.753 42.7715C141.118 42.8966 140.679 42.9836 139.95 43.1256C140.561 45.6815 141.158 48.1995 141.854 51.1264C143.097 50.4276 144.096 49.8716 145.2 49.2505C144.379 46.16 143.633 43.283 142.841 40.4171C142.137 37.8781 141.18 35.3923 140.71 32.8137C140.273 30.4523 138.873 29.683 136.696 29.3039C136.425 31.8431 138.978 31.4197 139.853 32.9613L139.848 32.9633ZM126.718 74.6463C126.575 75.2293 126.416 75.7248 126.346 76.2238C126.285 76.6324 126.329 77.0566 126.33 77.5782C132.517 76.0819 138.544 74.6218 144.57 73.1564C146.576 72.6686 146.393 70.9059 146.992 69.1734C139.865 70.6997 133.703 74.0318 126.716 74.6409L126.718 74.6463ZM74.1164 122.366C68.8038 118.937 63.3779 116.153 57.8253 113.201C57.1701 113.762 56.5433 114.3 55.6611 115.048C60.9153 118.698 66.4745 121.294 71.8993 124.643C72.7062 123.813 73.3007 123.206 74.113 122.374L74.1164 122.366ZM49.9702 119.256C49.249 119.693 48.5224 120.132 47.4934 120.756C54.1681 124.124 60.5817 127.362 67.1644 130.685C67.6544 130 68.0839 129.401 68.6762 128.578C62.2063 125.355 56.1492 122.335 49.9702 119.256ZM70.1593 125.601C65.1814 122.77 60.2122 119.93 55.2088 117.147C53.8366 116.385 53.7957 116.457 52.2019 117.862C52.7831 118.261 53.2994 118.684 53.8766 118.992C58.6879 121.582 63.5181 124.139 68.3314 126.734C69.3395 127.275 70.1482 127.456 70.4746 126.052C70.3608 125.884 70.297 125.685 70.1613 125.606L70.1593 125.601ZM146.088 67.6239C147.736 67.2546 148.505 66.4203 148.417 64.6149C148.017 64.6745 147.685 64.6835 147.379 64.7758C141.125 66.5708 134.875 68.3895 128.615 70.1499C127.655 70.4176 126.949 70.7 127.165 71.9966C133.608 70.5019 139.838 69.0202 146.085 67.6314L146.088 67.6239ZM137.528 64.6537C140.954 63.8469 144.375 63.0294 147.816 62.2973C149.356 61.9694 150.448 61.3653 150.419 59.5995C150.292 59.5114 150.131 59.3182 150.045 59.3513C143.521 61.4795 137.006 63.6294 130.489 65.7739C130.407 65.805 130.284 65.8397 130.268 65.8955C130.237 65.9942 130.27 66.1122 130.292 66.4143C132.748 65.8169 135.134 65.2153 137.528 64.6537ZM90.338 142.381C90.7916 141.748 91.1672 141.219 91.6936 140.483C88.6972 138.951 85.8977 137.512 83.0969 136.086C81.8157 135.432 81.225 136.503 80.1094 137.29C83.6241 139.04 86.9078 140.673 90.3326 142.383L90.338 142.381ZM135.461 46.7063C136.045 49.1605 136.614 51.5401 137.265 54.267C138.558 53.4558 139.556 52.8319 140.643 52.149C139.608 46.86 139.475 46.7243 135.463 46.7117L135.461 46.7063ZM136.642 96.4855C137.955 96.1822 138.173 95.2726 138.204 93.9249C137.427 94.1351 136.786 94.3118 136.152 94.4735C132.846 95.3154 129.552 96.2394 126.217 96.9559C124.695 97.283 124.624 97.9749 125.068 99.2156C128.977 98.2923 132.805 97.3689 136.642 96.4855ZM131.529 58.194C131.131 56.8613 130.739 55.5448 130.294 54.0378C129.106 53.8893 127.924 53.7388 126.461 53.5527C126.853 56.0061 127.207 58.2316 127.646 60.9897C129.117 59.9301 130.229 59.1323 131.529 58.194ZM132.201 56.5079C132.246 56.7393 132.446 56.9363 132.569 57.144C135.519 55.9227 135.989 55.5128 135.51 53.9503C134.544 50.8221 135.008 50.1039 131.023 50.4041C131.437 52.5756 131.805 54.5469 132.203 56.5134L132.201 56.5079ZM62.0059 111.136C61.2833 110.822 60.4995 109.991 59.527 111.364C64.0714 114.279 68.5838 117.176 73.0996 120.065C73.1753 119.906 73.2585 119.75 73.3342 119.59C69.6953 116.589 66.4414 113.068 62.0039 111.131L62.0059 111.136ZM135.102 101.622C135.683 101.45 136.075 100.641 136.942 99.707C135.903 99.7192 135.494 99.6397 135.131 99.7473C131.95 100.69 128.783 101.684 125.598 102.616C124.61 102.907 124.329 103.425 124.767 104.425C128.214 103.511 131.677 102.64 135.102 101.622ZM132.443 107.616C133.94 107.273 133.944 107.284 134.43 105.16C131.168 106.103 128.003 106.971 124.879 107.967C124.513 108.082 124.37 108.876 124.006 109.581C127.166 108.845 129.799 108.223 132.443 107.616ZM96.8585 95.7637C96.1586 96.8577 95.5238 97.846 94.8239 98.94C95.7132 99.7058 96.4269 100.321 97.4194 101.178C98.2704 99.9269 99.0246 98.8122 99.9914 97.3925C98.7831 96.7673 97.9448 96.3299 96.8606 95.7691L96.8585 95.7637ZM11.9864 103.127C13.961 104.099 15.653 104.95 17.3659 105.773C18.3041 106.228 18.8341 105.746 19.2435 104.769C16.0531 102.032 15.6001 101.919 11.9864 103.127ZM124.849 113.036C124.455 113.143 124.179 113.69 123.845 114.035C123.958 114.184 124.064 114.33 124.177 114.48C126.63 114.039 129.101 113.677 131.519 113.095C132.008 112.976 132.301 112.037 132.966 111.063C129.742 111.829 127.283 112.385 124.849 113.036ZM134.658 41.5523C134.299 44.6905 134.6 45.0227 138.655 45.8141C138.355 42.058 138.296 42 134.658 41.5523ZM85.0018 103.523C84.5603 104.139 84.0702 104.823 83.5 105.607C84.5821 106.454 85.5235 107.194 86.7141 108.13C87.3697 107.115 87.9615 106.193 88.7684 104.94C87.3079 104.386 86.2491 103.99 84.9997 103.517L85.0018 103.523ZM98.417 93.4219C99.2601 94.1805 100.004 94.859 100.924 95.6877C101.65 94.4347 102.282 93.3418 103.006 92.0833C102.11 91.5437 101.401 91.1191 100.375 90.4988C99.6467 91.5848 99.0864 92.4266 98.417 93.4219ZM84.6846 134.161C84.4944 134.054 84.0939 134.306 83.7075 134.417C85.2763 136.066 90.5901 139.06 92.4377 139.391C92.5397 139.203 92.6471 139.013 92.7492 138.825C90.0636 137.261 87.3869 135.688 84.6846 134.161ZM133.808 49.1091C133.804 45.9977 133.685 45.8634 130.415 45.5667C130.346 48.6188 130.527 48.7983 133.808 49.1091ZM137.183 40.568C137.337 37.7381 137.124 37.5215 133.357 36.8993C133.711 39.8081 133.788 39.8782 137.183 40.568ZM70.936 72.7366C69.9206 72.1123 69.045 71.5773 68.0051 70.9375C67.5715 71.737 67.2253 72.3913 66.7817 73.2133C67.6901 73.9966 68.5049 74.6977 69.5431 75.5929C70.0794 74.4932 70.4809 73.6749 70.936 72.7366ZM91.5249 99.8661C90.6002 99.3002 89.8112 98.8129 88.8545 98.2282C88.2041 99.1107 87.6507 99.8566 86.9827 100.758C88.033 101.425 88.9019 101.975 89.9256 102.621C90.4757 101.671 90.9472 100.857 91.5303 99.864L91.5249 99.8661ZM132.551 43.8739C132.561 40.8133 132.5 40.7499 129.345 40.4464C129.154 43.3091 130.169 43.7039 132.551 43.8739ZM110.847 152.406C110.933 152.274 111.019 152.141 111.113 152.012C109.735 150.862 108.359 149.717 106.986 148.564C106.013 147.743 105.422 148.293 104.663 149.459C106.812 150.482 108.832 151.443 110.847 152.406ZM102.098 88.5227C102.625 88.992 103.181 89.4876 104.014 90.2191C104.726 88.9464 105.338 87.8489 106.044 86.5912C104.557 85.8135 103.243 86.4591 102.1 88.5281L102.098 88.5227ZM124.348 117.999C124.009 118.085 123.826 118.795 123.4 119.499C127.613 118.678 130.101 117.727 130.863 116.644C128.445 117.128 126.378 117.49 124.352 117.991L124.348 117.999ZM132.329 31.8562C132.359 34.2739 132.572 34.4722 135.771 35.007C135.592 32.2982 135.475 32.1875 132.329 31.8562ZM125.099 47.2456C126.212 47.4102 127.133 47.5428 128.073 47.68C128.095 44.8761 127.952 44.7629 124.527 44.8239C124.723 45.6621 124.912 46.4474 125.099 47.2456ZM41.9306 115.925C39.6192 113.926 38.9299 113.829 36.8339 115.302C39.2489 116.797 40.9478 117.005 41.9306 115.925ZM106.963 75.9822C107.374 75.1231 107.829 74.284 108.292 73.3804C106.32 73.4883 105.22 74.7228 104.476 76.4799C105.586 77.3849 106.377 77.2127 106.966 75.9747L106.963 75.9822ZM129.48 52.2181C129.896 49.847 128.626 49.3697 125.676 49.4357C125.992 51.042 127.26 51.9695 129.48 52.2181ZM92.3552 93.752C91.7234 94.5528 91.1399 95.2854 90.4124 96.2097C91.1939 96.6937 91.8227 97.0869 92.7344 97.6515C93.359 96.7665 93.9297 95.9519 94.6578 94.9154C93.7038 94.4353 93.0932 94.1221 92.3552 93.752ZM30.5165 112.039C31.777 113.06 33.0364 113.933 34.6507 114.012C34.8844 114.022 35.1452 113.388 35.6172 112.754C33.7775 112.053 32.534 110.199 30.5111 112.041L30.5165 112.039ZM123.498 38.7374C123.427 40.4255 124.487 41.5237 126.678 42.032C126.667 39.8117 126.459 39.1706 123.498 38.7374ZM46.0973 120.078C46.4936 119.392 46.8322 118.815 47.1632 118.235C45.5935 117.282 44.1877 117.364 42.9456 118.481C44.0162 119.022 44.9947 119.518 46.0952 120.073L46.0973 120.078ZM29.86 88.2277C30.1974 86.9493 30.5678 85.8384 30.7275 84.6963C30.7612 84.4598 30.0078 84.1142 29.6126 83.8118C28.4695 85.5992 28.5513 87.0693 29.8579 88.2223L29.86 88.2277ZM72.7146 69.2483C72.9116 68.415 73.0518 67.8394 73.2169 67.1177C72.5231 66.5381 71.8026 65.9376 70.8917 65.1801C70.4892 65.8497 70.1619 66.3911 69.7197 67.1194C70.7849 67.8739 71.5525 68.419 72.7146 69.2483ZM129.105 122.281L128.868 121.694L123.421 123.777C123.504 123.994 123.586 124.211 123.677 124.431C125.531 123.821 127.754 124.077 129.105 122.281ZM96.3925 91.9782C96.9092 91.2338 97.3755 90.5523 97.9596 89.7076C97.3671 89.2632 96.8675 88.8827 96.2027 88.3789C95.5603 89.2335 95.0223 89.9549 94.3038 90.9193C95.1904 91.3693 95.7123 91.6294 96.3925 91.9782ZM128.278 35.5427C127.974 37.6719 129.575 37.83 131.184 38.3017C131.043 36.6327 130.074 35.713 128.278 35.5427ZM75.521 71.648C76.1122 72.1053 76.6309 72.5034 77.302 73.0234C77.7795 72.0952 78.1584 71.3476 78.6172 70.4515C77.9517 70.0599 77.3899 69.728 76.7299 69.3342C76.2891 70.18 75.9329 70.8568 75.521 71.648ZM49.4856 109.053C48.2925 107.948 47.1283 107.941 45.993 109.034C47.4064 109.968 48.5706 109.974 49.4856 109.053ZM101.122 84.087C100.754 83.8239 100.364 83.5506 99.7786 83.1408C99.1257 84.0491 98.5388 84.87 97.8077 85.8826C99.1612 86.4543 100.266 85.8558 101.122 84.087ZM78.5016 136.433C78.9615 135.816 79.3521 135.294 79.7635 134.745C79.5232 134.458 79.402 134.206 79.2044 134.095C77.8792 133.359 77.134 134.172 76.2899 135.247C77.0574 135.662 77.7137 136.013 78.5037 136.438L78.5016 136.433ZM23.9986 83.3307C24.605 83.8443 25.1732 84.3228 25.9723 84.9989C26.3041 84.0146 26.5627 83.2448 26.8585 82.3612C26.2635 81.9426 25.7347 81.5671 24.9317 81.0106C24.5386 81.981 24.2899 82.598 23.9986 83.3307ZM122.908 127.732C126.163 128.252 127.085 127.868 127.547 125.958L122.908 127.732ZM76.2673 54.153C75.4635 55.4089 75.9733 56.6553 77.7966 57.8923C79.0784 55.6066 76.6174 55.5723 76.2673 54.153ZM13.1991 88.3305C13.4653 87.4831 13.6657 86.8536 13.9066 86.1028C13.1696 85.6702 12.5267 85.2886 11.5066 84.6846C11.1886 85.3965 10.9543 85.921 10.6912 86.5C11.6909 87.2298 12.3624 87.7185 13.2045 88.3284L13.1991 88.3305ZM122.3 33.2498C122.181 34.6914 123.087 35.5171 125.018 35.7269C125.157 33.7169 123.6 33.6597 122.3 33.2498ZM134.207 29.9761C134.352 27.6408 132.632 27.7083 131.096 26.9909C131.139 29.4908 132.822 29.3752 134.207 29.9761ZM121.717 24.3649C121.909 23.1026 121.157 22.0877 119.459 21.3204C119.333 23.1517 119.908 24.2489 121.717 24.3649ZM42.3144 111.534C43.9664 113.661 44.34 113.761 46.0353 112.199C44.6158 111.785 43.7797 110.216 42.3144 111.534ZM91.9173 63.6567C92.9422 62.221 92.9606 61.0832 91.9726 60.2433C90.9994 61.5433 90.9809 62.6811 91.9173 63.6567ZM26.029 109.63C27.9487 111.449 28.2261 111.492 29.7461 109.911C28.3431 109.329 27.2895 108.247 26.029 109.63ZM35.1098 102.703C36.2524 103.773 37.3567 103.769 38.4228 102.691C37.2395 101.752 36.1351 101.756 35.1098 102.703ZM127.371 30.1177C127.374 31.4253 128.189 32.3254 129.814 32.8179C130.108 30.6616 128.769 30.4095 127.371 30.1177ZM73.8215 59.6983C72.9434 60.879 73.355 62.0636 75.0562 63.252C76.4274 61.0377 73.9354 61.1334 73.8215 59.6983ZM123.403 30.3492C123.192 28.9428 122.336 28.1021 120.835 27.8271C121.057 29.2832 121.912 30.1239 123.403 30.3492ZM72.5952 132.864C74.2236 134.701 74.4374 134.675 75.811 132.516C74.5625 131.136 73.5902 131.924 72.5952 132.864ZM98.4559 57.5713C98.0915 58.1456 97.4972 58.6711 97.5497 59.117C97.6202 59.7237 98.1787 60.2743 98.7896 61.2708C99.3786 60.0329 99.7304 59.2957 100.109 58.4986C99.4818 58.142 99.0489 57.9037 98.4613 57.5693L98.4559 57.5713ZM69.0923 131.47C69.6761 131.843 70.2354 132.201 70.9761 132.675C71.4283 131.925 71.8108 131.3 72.3248 130.451C71.1147 130.135 70.0372 130.475 69.0923 131.47ZM79.7042 67.5755C80.5181 66.411 80.4344 65.4883 79.4533 64.8073C78.6268 65.9062 78.7105 66.8289 79.7042 67.5755ZM24.4949 107.47C23.3463 106.611 22.257 105.81 20.8796 107.163C22.4289 108.323 23.634 108.425 24.4949 107.47ZM42.9903 105.374C41.969 104.642 40.9901 104.73 40.0537 105.639C41.1208 106.383 42.0997 106.294 42.9903 105.374ZM80.2935 52.4642C80.621 51.3821 79.8185 50.3015 77.8857 49.2224C77.7195 51.3548 79.3415 51.567 80.2935 52.4642ZM47.5402 114.997C48.4706 115.946 49.4499 115.897 50.4782 114.849C49.2872 113.652 48.3682 113.848 47.5402 114.997ZM125.973 24.9179C125.936 26.6094 126.95 27.0355 128.53 27.2826C128.351 25.4187 127.309 25.0655 125.973 24.9179ZM80.8609 126.031C80.744 125.92 80.5482 125.896 80.1873 125.748C79.5866 126.338 78.9246 126.995 78.2517 127.656C79.1689 128.387 80.1893 128.044 81.313 126.628C81.1684 126.429 81.0426 126.198 80.8588 126.026L80.8609 126.031ZM34.131 106.252C33.1814 105.198 32.2115 105.126 31.2213 106.035C32.2907 106.719 33.1677 107.372 34.131 106.252ZM21.9333 70.4895C21.7106 71.0282 21.3476 71.5087 21.4643 71.7002C21.8817 72.3855 22.4526 72.9686 23.1776 73.8408C24.4444 71.7596 22.9418 71.421 21.9333 70.4895ZM86.4907 131.768C87.0846 133.386 88.7266 133.554 89.9276 134.306C88.9782 133.172 88.147 131.843 86.4907 131.768ZM78.1515 124.048C76.0974 123.907 75.7853 124.164 75.0645 126.34C76.6221 126.254 77.0537 124.946 78.1515 124.048ZM26.3133 103.42C27.5499 104.736 28.357 104.248 29.2608 103.069C27.9013 101.334 27.3007 102.769 26.3133 103.42ZM17.8536 83.6056C17.1081 85.0028 18.286 85.3538 19.2482 86.1476C19.6056 84.8512 19.1408 84.0039 17.8536 83.6056ZM95.4809 142.377C94.1889 141.306 93.6198 142.369 92.771 143.333C93.9392 143.897 94.8425 143.578 95.4809 142.377ZM39.3774 108.793C38.4288 108.1 37.719 107.154 36.0475 108.42C37.3363 108.996 38.0355 110.288 39.3774 108.793ZM108.53 82.4347C107.78 81.4167 107.173 81.6488 106.59 82.3997C105.98 83.1922 106.404 83.6513 107.441 84.1866C107.841 83.5428 108.192 82.9802 108.53 82.4347ZM82.8797 47.7412C82.6751 45.4027 82.4608 45.2485 80.4145 46.0062C81.3049 46.6287 81.9798 47.11 82.8797 47.7412ZM85.8365 63.0434C84.7095 63.9466 84.5951 64.7359 86.137 65.6C86.6987 64.5776 86.5985 63.7254 85.8365 63.0434ZM26.9977 74.9271C26.0897 76.0945 26.4169 76.9013 27.7525 77.5834C28.7229 76.2866 28.3789 75.5172 26.9977 74.9271ZM72.6754 53.0787C72.3956 51.5021 71.6375 50.9657 70.017 50.8709C70.5094 52.4347 71.4968 52.6286 72.6754 53.0787ZM16.0975 77.0641C16.8326 76.0622 17.303 75.1803 15.5753 74.2691C14.8776 75.4989 14.4693 76.4131 16.0975 77.0641ZM20.5528 80.3802C21.241 79.5371 21.0323 78.6933 19.9265 77.8488C18.9102 79.188 19.496 79.8586 20.5528 80.3802ZM77.373 37.322C78.0516 38.479 79.0046 38.3879 79.9002 38.4555C79.4879 37.296 78.7203 36.9621 77.373 37.322ZM17.9576 67.0956C17.337 68.0722 16.8676 68.8917 18.4205 69.4596C19.1744 68.5065 19.1933 67.7599 17.9576 67.0956ZM35.1546 82.09C34.2531 83.112 34.3108 83.8478 35.6412 84.4512C36.4965 83.422 36.4095 82.6911 35.1546 82.09ZM38.9271 85.3753C38.0027 86.4184 38.0963 87.1344 39.4733 87.7944C39.962 86.7005 40.0672 85.952 38.9271 85.3753ZM29.9633 68.3692C29.3573 68.7666 29.014 69.3473 28.9334 70.1113C29.7437 69.7392 30.087 69.1585 29.9633 68.3692ZM13.6035 80.1115C13.3496 81.1696 13.8933 81.6761 15.2347 81.6312C14.7235 81.1557 14.2103 80.6747 13.6035 80.1115ZM84.5069 54.4004C83.4908 55.6588 84.2677 56.1631 85.2864 56.78C86.2159 55.2627 85.4939 54.8368 84.5069 54.4004ZM31.8959 81.0747C32.6555 80.1692 32.7578 79.3969 31.3904 78.7456C30.635 79.8732 30.5748 80.6418 31.8959 81.0747ZM101.534 80.6306C102.502 80.6271 103.06 80.6248 103.624 80.6205C103.54 80.062 103.465 79.5069 103.382 78.9485C103.149 78.9568 102.91 78.9672 102.68 78.9809C102.403 79.3786 102.126 79.7764 101.536 80.6361L101.534 80.6306ZM88.9691 57.8319C88.2529 58.5097 87.5411 59.0366 88.7804 60.2464C89.4307 59.3639 90.1027 58.7653 88.9691 57.8319ZM126.037 131.351C125.034 131.796 124.362 132.103 123.693 132.402C123.76 132.594 123.826 132.78 123.893 132.972C124.73 132.969 125.582 133.003 126.039 131.356L126.037 131.351ZM82.4244 60.1484C82.2009 60.0351 81.7729 60.3292 81.436 60.4394C81.6588 60.9569 81.8815 61.4744 82.2042 62.2207C83.34 61.0968 83.1603 60.5131 82.4244 60.1484ZM53.9291 111.168C52.5775 110.542 52.1594 111.528 51.1701 112.304C52.9878 113.175 53.2484 111.988 53.9291 111.168ZM19.9667 53.2927C20.5519 52.9384 21.2009 52.5722 20.7288 51.7276C20.6374 51.5699 20.2248 51.4171 20.0739 51.4935C19.319 51.8753 18.9076 52.4241 19.398 53.2678C19.6521 53.2825 19.8557 53.36 19.9721 53.2906L19.9667 53.2927ZM98.3159 52.5428C97.8504 51.3581 97.0992 50.964 96.0621 51.3606C96.8554 51.7779 97.4456 52.0865 98.3159 52.5428ZM50.2415 105.278C50.1544 105.473 50.0653 105.663 49.9783 105.858C50.559 106.58 51.1785 107.225 52.8851 106.554C51.7275 105.996 50.9882 105.639 50.2415 105.278ZM109.67 80.4766C110.255 79.6999 110.649 79.1702 111.05 78.644L110.479 78.1913C109.535 78.4032 108.948 78.8329 109.672 80.482L109.67 80.4766ZM28.4521 60.1124C28.4361 59.957 28.0704 59.6993 27.8837 59.7147C26.8899 59.7966 26.9735 60.535 26.9402 61.374C28.1576 61.4055 28.5397 60.9425 28.4521 60.1124ZM21.3814 61.4434C21.3146 61.3012 20.7577 61.2097 20.7235 61.2663C20.4534 61.73 20.2625 62.2379 20.0395 62.727C21.2748 62.7081 21.8047 62.3067 21.3814 61.4434ZM77.4392 130.763C77.4759 130.761 77.5066 129.948 77.4529 129.937C76.9693 129.843 76.4715 129.841 75.9782 129.818C75.9518 130.139 75.9307 130.457 75.9043 130.778C76.4172 130.787 76.9308 130.814 77.4338 130.765L77.4392 130.763ZM23.6025 57.9101C24.0124 57.9583 24.2222 58.0521 24.3203 57.9835C25.0365 57.517 25.4425 56.9703 24.2211 55.791C23.9368 56.7695 23.7732 57.3167 23.6025 57.9101ZM95.744 55.8251C95.3485 55.6843 95.1438 55.5389 95.0633 55.5884C94.4268 55.9871 94.0279 56.4876 95.406 57.638C95.5196 57.0416 95.6312 56.4398 95.744 55.8251ZM25.5172 65.4347C25.2886 65.373 24.8935 65.201 24.8647 65.2556C24.6147 65.6742 24.4289 66.1305 24.228 66.5801C24.512 66.6889 24.8034 66.8012 25.0873 66.91C25.2295 66.4208 25.3771 65.9294 25.5172 65.4347ZM81.3314 132.493C81.3687 132.379 81.2051 132.081 81.1759 132.086C80.7262 132.177 80.2814 132.298 79.5824 132.484C80.5479 133.271 81.0461 133.322 81.326 132.495L81.3314 132.493ZM122.523 136.41C122.844 136.697 122.952 136.88 123.054 136.871C123.709 136.845 124.402 136.822 124.366 135.574C123.673 135.889 123.146 136.122 122.521 136.404L122.523 136.41ZM72.6329 45.9005C72.5017 46.0936 72.3651 46.2887 72.2339 46.4818C72.7257 46.8094 73.2196 47.1424 73.7115 47.47C73.8393 47.2844 73.9638 47.1063 74.0917 46.9207C73.6065 46.5782 73.118 46.2431 72.6329 45.9005ZM90.3423 46.5089C90.4446 46.3703 90.5415 46.2339 90.6439 46.0953C90.2233 45.7591 89.8048 45.4284 89.3897 45.0901C89.2572 45.2961 89.1172 45.4987 88.9848 45.7047C89.4409 45.9714 89.8916 46.2401 90.3477 46.5068L90.3423 46.5089ZM82.0962 130.398C83.6076 130.435 84.039 129.923 84.2259 129.112C84.0538 128.954 83.8816 128.796 83.7094 128.638C83.271 129.117 82.8326 129.595 82.0962 130.398ZM114.283 72.102C115.24 71.8766 115.933 71.4025 116.361 70.6798C116.241 70.5454 116.118 70.4185 115.998 70.2841C115.535 70.7782 115.069 71.2669 114.283 72.102ZM76.8336 42.3122C76.9313 42.1941 77.0269 42.0705 77.1246 41.9524C76.7012 41.5924 76.2852 41.2358 75.8618 40.8759C75.7265 41.0581 75.5932 41.2458 75.4579 41.428C75.9189 41.7238 76.3779 42.0143 76.8336 42.3122ZM61.2076 75.842C61.1634 75.8402 61.051 76.4237 61.096 76.4438C61.4407 76.5978 61.8168 76.6714 62.1849 76.7729C62.2398 76.5593 62.2948 76.3457 62.3889 75.9742C61.9361 75.9113 61.5729 75.8389 61.2055 75.8365L61.2076 75.842ZM63.6876 70.4513C63.6035 70.4587 63.5702 70.8752 63.5139 71.1018C63.8975 71.1788 64.2806 71.287 64.6684 71.294C64.7384 71.2983 64.8221 70.8997 64.9595 70.5117C64.4546 70.4749 64.0656 70.4 63.693 70.4493L63.6876 70.4513ZM37.3857 78.5342C37.2139 78.4259 37.0474 78.3156 36.8756 78.2074C36.5936 78.6072 36.317 79.005 36.0329 79.3994C36.2647 79.5344 36.4932 79.6769 36.725 79.812L37.3857 78.5342ZM101.232 147.652C102.083 147.604 102.616 147.156 102.83 146.308C102.364 146.697 101.9 147.092 101.232 147.652ZM33.4984 73.1618C33.4984 73.1618 33.0975 73.0231 32.883 72.9498C32.7284 73.4066 32.5717 73.8579 32.4171 74.3146C32.6349 74.3805 32.8581 74.4442 33.0738 74.5046C33.2217 74.0629 33.3805 73.6169 33.493 73.1639L33.4984 73.1618ZM72.55 128.619C72.8452 128.693 73.2148 128.912 73.4158 128.804C73.6277 128.692 73.6868 128.278 73.8086 127.995C73.5355 127.882 73.2644 127.774 72.8361 127.596C72.7106 128.048 72.6276 128.335 72.5446 128.621L72.55 128.619ZM44.204 101.822C44.6768 102.668 45.3028 102.984 46.082 102.769C45.466 102.458 44.9645 102.202 44.204 101.822ZM113.029 75.663C113.233 75.4484 113.302 75.1111 113.435 74.8243C113.162 74.7921 112.847 74.6515 112.629 74.7473C112.346 74.868 112.144 75.1689 111.639 75.6354C112.59 75.6693 112.929 75.7757 113.029 75.663ZM38.9679 74.4996C38.9776 74.6388 39.2861 74.7631 39.4588 74.8897C39.625 74.6584 39.7988 74.4304 39.965 74.199C39.7728 74.0862 39.5751 73.9754 39.3337 73.8316C39.1745 74.0975 38.9558 74.3054 38.9679 74.4996ZM9.8644 83.7532C9.74244 83.6943 9.61506 83.6374 9.49517 83.5838C9.26006 84.09 9.02494 84.5962 8.78983 85.1023C8.97636 85.1677 9.16496 85.2384 9.34606 85.3059C9.51996 84.7858 9.6905 84.2733 9.8644 83.7532ZM69.2885 57.7227C69.3754 57.6087 69.4623 57.4947 69.5471 57.3753C69.2089 57.076 68.8687 56.7712 68.536 56.4697C68.4027 56.6574 68.2661 56.8525 68.1329 57.0402C68.5174 57.2659 68.9019 57.4916 69.2865 57.7173L69.2885 57.7227ZM35.0415 68.8626C34.9747 68.7204 34.4903 68.6074 34.4039 68.6902C34.2015 68.8918 34.133 69.2163 34.0091 69.4935C34.2822 69.6065 34.5553 69.7195 35.064 69.9288C35.0688 69.4051 35.1523 69.0874 35.0415 68.8626Z" fill="#333333"/>
</svg>
