<svg width="292" height="444" viewBox="0 0 292 444" fill="none" xmlns="http://www.w3.org/2000/svg">
<path d="M289.607 175.748C291.103 170.72 292.52 163.896 289.418 159.182C287.541 156.33 284.759 154.221 281.62 152.94C278.909 151.833 276.036 150.899 273.081 150.891C267.782 150.874 263.18 153.97 259.199 157.162C252.575 162.492 247.237 169.203 241.221 175.17C233.476 182.845 225.001 189.901 216.551 196.77C212.028 200.442 207.399 203.967 202.874 207.629C200.582 209.484 198.313 211.347 196.087 213.277C194.843 214.36 193.605 215.448 192.373 216.551C192.09 216.8 189.006 219.451 188.986 219.415C188.616 219.111 189.44 216.767 189.607 216.265C189.996 215.109 190.663 214.142 191.431 213.208C192.83 211.505 194.364 209.903 195.871 208.308C200.322 203.622 204.899 199.06 209.522 194.536C212.977 191.147 216.436 187.752 219.575 184.064C222.927 180.118 226.147 176.044 229.34 171.968C232.705 167.67 236.035 163.342 239.274 158.959C241.348 156.148 243.312 153.255 245.479 150.511C249.097 145.918 252.885 141.464 256.485 136.857C259.38 133.155 262.093 129.315 264.801 125.47C268.031 120.893 271.101 116.164 274.095 111.432C276.288 107.961 278.698 104.323 280.212 100.481C281.688 96.7347 282.753 92.2183 282.237 88.2129C282.048 86.7787 281.761 85.273 281.151 83.9555C280.562 82.6845 279.547 81.6928 278.816 80.5113C277.232 77.9498 275.07 76.2223 272.215 75.1945C267.777 73.6032 263.145 73.0137 258.508 74.0233C253.632 75.0833 249.676 77.9326 246.098 81.269C242.891 84.2612 239.847 87.3185 237.039 90.6876C234.234 94.0401 231.563 97.4929 228.912 100.971C222.522 109.356 215.716 117.469 208.992 125.59C205.196 130.174 201.096 134.144 196.69 138.128C195.995 138.758 195.306 139.382 194.604 139.996C194.445 140.13 194.08 140.598 193.866 140.619C193.93 140.612 194.307 139.879 194.362 139.787C194.897 138.957 195.454 138.136 196.011 137.315C197.639 134.914 199.29 132.522 200.948 130.146C204.075 125.671 207.191 121.197 210.191 116.637C215.64 108.344 221.128 100.074 226.698 91.8606C233.876 81.2596 241.786 71.1919 248.854 60.5206C250.492 58.049 252.188 55.615 253.825 53.1435C255.486 50.6318 257.411 48.1106 258.683 45.3778C260.798 40.829 261.512 35.148 260.725 30.1916C260.318 27.6337 258.664 25.1923 257.203 23.1156C255.912 21.2868 254.366 19.9474 252.422 18.852C247.833 16.2709 242.64 14.3052 237.279 14.8672C234.675 15.138 232.318 16.4377 230.079 17.7367C227.683 19.1321 225.61 20.7443 223.676 22.7263C219.798 26.7022 216.13 30.9385 212.584 35.2168C209.366 39.0957 206.115 42.9564 203.213 47.0853C200.63 50.7672 198.191 54.5483 195.602 58.2254C190.458 65.5492 184.693 72.4208 179.034 79.3412C172.108 87.8168 165.171 96.2448 158.549 104.961C152.18 113.344 145.944 121.806 139.924 130.447C137.144 134.44 134.446 138.489 131.486 142.354C130.959 143.042 130.443 143.779 129.851 144.415C129.719 144.552 129.396 145.004 129.208 145.017C128.732 145.059 129 144.217 129.07 143.881C129.483 141.691 131.031 139.687 132.242 137.878C138.363 128.779 144.442 119.706 150.147 110.335C155.615 101.359 161.167 92.413 166.544 83.3815C169.099 79.0866 171.368 74.6146 174.056 70.3986C176.481 66.597 179.184 62.9737 181.923 59.39C185.806 54.3065 189.817 49.3185 193.698 44.2243C195.819 41.4409 197.937 38.6361 199.744 35.6349C202.021 31.8588 203.738 27.9267 204.843 23.6495C205.423 21.4109 205.746 19.3055 205.2 17.0259C204.52 14.2139 203.009 11.5749 201.333 9.24364C199.753 7.04895 197.299 5.377 195.053 3.94404C192.576 2.36082 190.017 1.42829 187.099 1.02767C183.01 0.471492 178.261 1.33008 174.536 3.10923C170.315 5.12047 165.955 7.64751 162.378 10.6705C160.503 12.258 158.816 14.1186 157.103 15.8792C154.86 18.1778 152.645 20.4897 150.514 22.8907C146.812 27.06 143.353 31.4 139.979 35.8289C136.404 40.5259 132.675 45.0867 129.036 49.7306C125.199 54.6259 121.426 59.5636 117.706 64.5448C114.291 69.1074 111.259 73.9457 108.128 78.7126C101.824 88.31 96.0151 98.2156 89.6135 107.752C83.8151 116.388 77.8797 124.783 71.1676 132.746C67.8 136.747 64.1315 140.433 60.6327 144.307C57.6265 147.641 54.6632 150.971 50.9186 153.492C48.7959 154.926 46.6027 156.301 44.3649 157.552C43.4942 158.036 42.5948 158.448 41.6629 158.804C41.1736 158.992 38.8905 160.166 38.3874 159.88C37.9819 159.655 39.9688 154.844 40.1942 154.222C40.8238 152.486 41.471 150.765 42.0392 149.008C43.6073 144.167 44.9499 139.23 46.1738 134.293C46.7497 131.952 47.2769 129.611 47.7201 127.24C48.2997 124.164 49.4904 121.207 50.2015 118.151C51.6227 112.028 51.9668 105.66 51.4308 99.4042C50.9428 93.749 49.3682 88.1945 47.7945 82.7588C46.5248 78.3896 44.5654 74.2013 42.2952 70.2594C39.4497 65.2937 36.3462 60.1749 31.9255 56.4433C27.7926 52.9481 21.0104 51.2998 15.9035 53.4192C11.8709 55.0934 8.6214 58.4246 7.12501 62.5079C5.18798 67.7738 4.13461 73.461 2.69303 78.8783C1.13176 84.7285 0.132868 90.6966 -1.22368 96.597C-4.1829 109.416 -8.97228 121.743 -14.6067 133.603C-18.965 142.773 -24.0354 151.564 -29.134 160.341C-31.4958 164.412 -33.8896 168.486 -36.091 172.649C-38.1658 176.562 -39.8753 180.785 -41.4365 184.923C-45.7453 196.367 -48.4012 208.697 -49.1134 220.912C-49.6382 229.907 -49.5242 238.807 -49.3959 247.797C-49.2387 259.182 -49.1185 270.576 -49.5502 281.96C-49.6991 285.96 -49.6171 290.721 -51.4874 294.349C-52.4903 296.299 -54.0157 297.82 -55.4773 299.443C-57.2653 301.427 -59.1073 303.357 -60.8777 305.355C-64.7064 309.667 -68.3873 314.109 -72.2935 318.347C-76.2682 322.657 -80.2979 326.901 -84.2726 331.211C-87.7392 334.973 -91.4351 338.489 -94.9977 342.153C-96.1952 343.383 -97.3692 344.631 -98.3837 346.021C-99.426 347.457 -100.892 349.145 -99.8486 350.868C-99.4175 351.577 -98.8256 354.317 -97.8599 353.92C-97.6784 353.843 -97.4833 353.629 -97.3058 353.401C-97.1224 353.178 -96.9635 352.925 -96.8369 352.783C-96.2498 352.104 -95.6851 351.417 -95.1097 350.729C-92.5244 347.62 -90.0826 344.313 -87.2251 341.447C-86.1482 340.364 -84.8958 339.475 -83.7944 338.422C-81.9513 336.67 -80.1503 334.874 -78.3786 333.054C-75.0702 329.663 -71.5915 325.969 -67.2031 323.958C-66.5365 323.649 -65.4092 322.972 -64.6486 323.184C-63.8773 323.395 -63.1739 324.514 -62.7194 325.075C-61.8095 326.206 -60.9986 327.374 -59.8942 328.341C-59.3508 328.817 -58.794 329.265 -58.3288 329.824C-56.8988 331.58 -56.0717 333.854 -54.9935 335.822C-54.756 336.264 -50.7726 342.539 -50.4777 342.24C-50.355 342.114 -51.751 340.209 -51.9055 339.954C-52.5624 338.814 -53.1069 337.609 -53.5892 336.376C-54.4768 334.092 -55.0808 331.727 -55.4632 329.307C-56.1394 325.042 -56.5065 320.568 -56.4162 316.244C-56.3703 314.117 -56.4727 311.8 -56.0226 309.72C-55.7611 308.527 -55.068 308.103 -54.2094 307.274C-52.877 305.988 -51.6396 304.614 -50.4021 303.24C-49.8757 302.66 -49.9539 302.743 -49.2246 303.077C-48.427 303.447 -47.4559 303.546 -46.7076 303.965C-46.1018 304.305 -45.5671 305.079 -45.0606 305.564C-44.1683 306.406 -43.2469 307.212 -42.3256 308.019C-40.5251 309.587 -38.7005 311.126 -36.8238 312.59C-32.4287 316.005 -27.9335 319.67 -23.1134 322.461C-22.529 322.803 -21.926 323.171 -21.2529 323.262C-20.8096 323.321 -20.4627 323.39 -20.6281 322.969C-20.9652 322.062 -22.4669 321.064 -23.1158 320.393C-23.9146 319.569 -24.6748 318.698 -25.4736 317.874C-28.911 314.311 -32.1358 310.549 -34.858 306.403C-35.5936 305.287 -36.2584 304.12 -36.8874 302.934C-36.8564 302.92 -36.8136 302.916 -36.7777 302.897C-36.4828 303.041 -36.1417 303.104 -35.8101 303.072C-27.7155 311.073 -17.3897 316.43 -6.14333 318.609C-0.0056052 319.797 5.9768 319.892 11.8856 319.18C12.1855 319.21 12.4796 319.235 12.7785 319.254C15.1892 318.943 17.6086 318.501 20.0652 317.942C24.5665 316.919 28.978 315.586 33.3795 314.205C32.3281 314.167 31.2708 314.125 30.2163 314.055C24.0393 313.682 17.8497 312.737 11.9048 310.98C4.39691 309.256 -2.72033 306.004 -9.34947 302.111C-18.7176 296.605 -26.8607 289.489 -32.2046 280.512C-32.8604 277.671 -34.1223 274.873 -34.9303 272.133C-36.0832 268.184 -37.068 264.187 -37.8565 260.154C-39.3437 252.566 -40.2134 244.885 -40.5151 237.159C-41.1209 221.627 -39.2038 206.269 -35.7453 191.155C-34.4819 188.169 -32.9715 185.278 -31.5147 182.392C-27.4053 174.268 -22.8749 166.361 -18.8221 158.21C-15.1889 150.904 -11.7533 143.456 -8.97231 135.774C-5.81028 127.019 -1.83336 118.588 0.864256 109.667C3.88628 99.6456 5.66336 89.3188 8.43577 79.2295C9.23161 76.3218 10.1904 73.4792 11.3775 70.706C12.6306 67.7806 13.7694 64.348 15.8863 61.916C17.2112 60.3877 18.8897 58.6088 21.0252 59.3505C23.7929 60.3167 25.7648 62.0357 27.3221 64.4865C30.0355 68.7631 32.0121 73.182 33.4582 78.0307C34.9639 83.0464 35.4916 87.9472 35.6769 93.1568C35.7446 94.954 35.8385 96.7432 35.9762 98.5389C36.0636 99.6537 35.7829 100.594 35.5286 101.693C35.1667 103.295 34.8166 104.906 34.4108 106.501C33.9016 108.474 33.0386 109.811 31.892 111.505C31.4863 112.107 31.1198 112.888 30.5439 113.349C29.9175 113.848 28.9687 113.865 28.2074 113.977C27.7018 114.054 25.5424 113.951 25.1794 114.381C24.5692 115.1 26.7957 115.779 27.253 116.036C28.2348 116.578 29.1029 117.281 29.9854 117.967C30.5813 118.427 31.2782 118.872 31.702 119.506C32.7698 121.092 33.2338 123.353 33.6132 125.189C34.5091 129.547 33.5619 134.111 32.7074 138.407C31.9686 142.119 30.6792 145.723 29.4626 149.298C28.0064 153.572 26.0965 157.68 23.7812 161.562C21.6468 165.141 18.7893 168.282 14.9698 170.092C14.0821 170.514 13.1603 170.917 12.2103 171.199C11.612 171.377 10.7821 171.285 10.339 171.669C10.1997 171.79 9.87894 171.713 10.088 171.974C10.2539 172.179 10.9728 172.13 11.1947 172.136C12.5772 172.19 13.9019 172.206 15.27 172.445C20.6692 173.37 25.8524 173.743 31.3244 173.203C26.8383 174.603 22.4804 176.374 17.9864 177.747C15.8001 178.42 13.5789 178.956 11.3687 179.55C10.5216 179.778 9.56368 180.034 8.80423 180.276C7.25428 180.773 7.99201 180.917 9.21811 181.029C13.3873 181.416 17.6748 181.299 21.8184 180.651C23.8611 180.332 25.8816 179.897 27.8889 179.382C29.9914 178.847 32.0581 178.056 34.1849 177.659C38.5862 176.83 43.0186 175.986 47.5083 175.838C49.7852 175.762 52.06 175.939 54.3169 176.21C55.3718 176.339 56.423 176.484 57.479 176.624C58.2018 176.726 59.2625 177.136 59.744 176.37C60.1368 175.749 59.7612 175.332 59.2153 175.05C58.9936 174.937 58.6898 174.924 58.4815 174.782C58.2722 174.629 58.3526 174.568 58.192 174.416C57.7629 174.004 57.3933 173.76 56.8484 173.489C55.7799 172.945 54.6991 172.441 53.6086 171.948C53.0999 171.717 52.5865 171.491 52.073 171.266C51.8534 171.174 51.6327 171.072 51.4131 170.98C50.9563 170.781 50.9089 170.683 50.6673 170.367C49.9613 169.442 49.7609 169.602 48.635 169.631C47.6327 169.653 46.6432 168.978 45.7708 168.507C44.7842 167.972 43.7648 167.488 42.7244 167.066C42.4717 166.966 40.9782 166.605 40.9682 166.282C40.9662 165.985 43.2621 165.274 43.5116 165.174C44.6395 164.724 45.7871 164.309 46.9288 163.89C49.9723 162.76 52.5217 160.664 55.1005 158.759C56.526 157.707 58.2755 156.489 60.0742 156.216C61.4684 156.004 62.8158 156.639 63.9239 157.422C65.3683 158.442 66.4493 159.832 67.6134 161.133C68.809 162.48 70.0035 163.816 71.1343 165.217C72.1983 166.544 73.1613 168.33 74.5523 169.355C75.0238 169.703 75.2413 169.773 75.3287 169.176C75.4117 168.644 75.0562 167.88 74.8679 167.39C74.2931 165.875 73.6231 164.38 73.0007 162.874C72.29 161.129 71.5338 159.416 70.6272 157.765C69.6012 155.889 68.2396 154.17 67.2758 152.266C66.6709 151.05 65.9432 148.799 66.7994 147.614C69.4625 143.919 72.4647 140.434 75.3205 136.887C78.7437 132.626 81.7934 127.97 86.9084 125.601C87.3421 125.397 91.8544 123.713 91.8959 123.807C91.7765 123.413 89.6969 123.465 89.4077 123.434C88.6928 123.358 86.3666 123.208 86.3415 122.233C86.3355 121.785 87.1864 120.821 87.4166 120.469C88.1159 119.391 88.8328 118.327 89.5438 117.259C92.5144 112.842 95.572 108.488 98.439 104.006C101.231 99.639 104.452 95.5761 107.389 91.3088C109.691 87.9568 111.586 84.3584 113.83 80.9688C115.44 78.5432 117.055 76.3385 119.731 74.9752C120.718 74.4683 121.812 74.2263 122.897 74.0554C123.509 73.9578 124.172 73.8336 124.79 73.8595C124.914 73.8636 125.579 73.9768 125.627 73.9181C125.675 73.8594 121.641 72.4716 121.203 72.3092C120.985 72.2279 120.139 72.0244 120.106 71.8008C120.032 71.376 121.459 69.7837 121.706 69.4356C123.857 66.3036 126.077 63.2188 128.402 60.2102C133.16 54.0745 138.057 48.0439 142.599 41.751C143.822 40.0599 144.986 38.9308 147.031 38.2502C148.245 37.8507 149.536 37.6327 150.822 37.6366C151.438 37.6411 152.053 37.6944 152.661 37.8294C152.953 37.8927 153.814 38.354 154.076 38.2743C154.076 38.2743 152.389 37.1539 152.236 37.0771C151.39 36.6575 150.528 36.4015 149.654 36.0766C149.094 35.8721 147.986 35.1974 148.064 34.4552C148.173 33.4131 149.934 31.9772 150.544 31.2587C152.313 29.1901 154.094 27.1312 155.91 25.1013C161.128 19.2554 166.594 13.4662 173.541 9.67097C177.001 7.78266 180.774 5.82605 184.7 5.15605C186.336 4.87728 188.58 4.8523 189.989 5.84324C191.451 6.87762 192.833 8.9082 193.35 10.6128C194.652 14.9194 193.193 20.441 191.635 24.5033C190.22 28.2006 187.639 31.5798 185.278 34.7162C182.626 38.2428 179.68 41.5282 175.722 43.6379C174.141 44.4837 172.603 45.3253 170.809 44.8149C170.27 44.657 165.258 42.4467 165.147 42.5817C165.094 42.6463 166.301 44.3861 166.414 44.6073C166.853 45.45 167.295 46.3736 167.489 47.3105C167.736 48.5176 167.364 49.7367 167.024 50.8934C166.43 52.8848 165.854 54.9501 165.014 56.8576C164.247 58.6176 163.127 60.2555 162.084 61.848C159.485 65.8123 156.49 69.8153 152.739 72.7635C151.184 73.9848 149.537 75.0909 147.862 76.1349C146.843 76.7638 145.428 77.8635 144.162 77.8954C143.461 77.9099 142.646 77.4658 141.959 77.2953C140.834 77.0002 139.688 76.7667 138.549 76.5486C137.25 76.2976 135.949 76.0845 134.644 75.888C134.337 75.8424 131.984 75.2462 131.776 75.4987C131.689 75.6044 133.771 76.4 134.081 76.5371C135.046 76.9559 135.966 77.4762 136.881 77.9916C138.424 78.8668 140.017 79.7426 141.485 80.7332C142.618 81.4973 142.354 83.2675 142.264 84.5022C141.978 88.5374 140.346 92.6664 138.666 96.314C137.735 98.333 136.626 100.245 135.438 102.122C131.643 108.104 127.744 114.021 123.567 119.738C121.538 122.518 119.566 125.325 117.432 128.028C116.942 128.649 116.48 129.558 115.869 130.05C115.468 130.37 115.842 130.274 115.383 130.211C114.973 130.159 114.469 129.755 114.095 129.575C111.569 128.326 109.037 127.564 106.313 126.879C104.819 126.507 103.319 126.141 101.809 125.824C101.23 125.702 100.652 125.591 100.069 125.486C99.7944 125.438 97.6863 124.866 97.4508 125.164C97.4605 125.153 99.3435 125.687 99.5268 125.739C100.408 125.972 101.283 126.248 102.14 126.558C103.999 127.241 105.833 128.039 107.612 128.891C110.779 130.412 113.526 132.925 116.178 135.193C118.582 137.248 121.235 139.694 122.9 142.421C124.245 144.628 124.966 147.533 127.423 148.746C129.483 149.759 131.71 150.389 133.758 151.453C134.213 151.689 138.736 154.698 138.635 154.821C138.707 154.733 136.455 152.026 136.242 151.723C135.489 150.652 134.639 149.52 134.318 148.233C134.125 147.475 133.842 146.514 134.21 145.852C134.719 144.932 135.695 144.081 136.38 143.306C140.027 139.229 143.262 134.981 146.46 130.564C149.808 125.927 153.216 121.338 156.559 116.707C160.356 111.454 164.134 106.078 168.257 101.074C168.754 100.469 169.3 99.6485 169.926 99.1985C170.698 98.6423 171.966 98.1889 172.856 97.8968C174.519 97.3453 176.5 97.3299 178.227 97.431C178.911 97.4721 179.505 97.6355 180.161 97.7712C180.244 97.7901 181.206 97.9607 181.204 97.8906C181.171 97.5483 179.607 97.2367 179.361 97.1528C178.468 96.862 177.582 96.5274 176.751 96.0902C176.187 95.7942 174.444 94.9224 174.154 94.2703C173.827 93.5299 176.441 90.7685 176.941 90.1364C180.99 85.042 185.364 80.2238 189.702 75.3766C192.89 71.8083 195.758 67.888 198.584 64.0312C199.608 62.6295 200.531 61.1351 201.602 59.7721C202.097 59.1458 202.587 59.1843 203.414 59.1953C204.712 59.2088 206.09 59.3873 207.328 59.7847C207.841 59.9506 208.303 60.3699 208.195 59.7107C208.122 59.2966 207.603 58.9585 207.297 58.6968C206.523 58.0218 205.289 57.381 204.95 56.3448C204.587 55.23 205.581 54.2957 206.208 53.4729C209.688 48.9041 213.022 44.2253 216.536 39.6854C219.782 35.4851 223.075 31.2748 226.655 27.3496C230.732 22.8682 236.058 21.2728 242.021 21.2839C243.917 21.2875 245.807 21.4538 247.656 21.8617C248.749 22.1005 250.381 22.3298 251.345 22.9646C251.985 23.3827 252.061 24.4878 252.167 25.2442C252.335 26.5239 252.411 27.8451 252.212 29.1283C251.839 31.5572 250.798 33.8894 249.761 36.097C248.473 38.8368 247.057 41.5297 245.445 44.1013C241.886 49.7851 237.752 55.3413 233.341 60.3846C231.647 62.3271 229.752 63.9975 227.601 65.4175C226.637 66.0518 225.608 66.6817 224.437 66.8016C223.121 66.9302 221.753 66.5239 220.495 66.1987C219.764 66.0109 219.05 65.7783 218.322 65.574C217.838 65.4322 217.18 65.1078 217.472 65.6625C217.719 66.1406 218.639 66.4342 219.063 66.7437C219.522 67.0715 219.88 67.4739 220.223 67.9427C221.976 70.2987 221.773 72.7002 220.929 75.3912C219.385 80.3108 216.733 85.1173 213.896 89.4073C211.285 93.362 208.395 96.9983 205.33 100.609C204.4 101.704 203.485 103.284 202.2 103.95C199.737 105.222 197.636 105.217 195.05 104.449C194.505 104.286 193.964 104.118 193.433 103.926C193.232 103.86 192.577 103.459 192.38 103.495C191.834 103.597 192.47 104.08 192.674 104.346C193.075 104.853 193.451 105.437 193.729 106.02C194.667 107.932 194.057 110.254 193.406 112.16C191.511 117.745 188.149 122.638 184.828 127.445C181.28 132.587 177.938 137.731 173.681 142.36C171.983 144.211 170.129 145.904 168.237 147.547C167.719 147.998 167.208 148.571 166.6 148.869C165.446 149.435 163.936 149.621 162.685 149.694C160.939 149.795 159.219 149.374 157.58 148.795C157.199 148.659 154.005 147.313 154.007 147.216C153.982 147.845 155.913 149.147 156.38 149.668C157.216 150.602 157.912 151.646 158.598 152.691C160.383 155.428 162.249 158.221 163.645 161.179C164.755 163.528 165.279 165.956 165.404 168.557C165.463 169.777 165.172 170.827 165.073 172.024C164.923 173.751 165.144 175.517 165.446 177.221C165.599 178.065 168.151 187.374 168.502 187.21C168.662 187.135 168.244 184.962 168.223 184.689C168.142 183.638 168.136 182.58 168.173 181.529C168.238 179.427 168.437 177.317 168.856 175.251C169.388 172.629 170.6 171.106 172.231 169.062C174.521 166.192 176.857 163.349 179.229 160.547C180.178 159.428 181.133 158.314 182.13 157.244C183.754 155.508 185.591 153.476 187.721 152.345C189.38 151.464 191.953 151.267 193.777 151.585C195.013 151.805 196.333 152.151 197.481 152.681C197.781 152.819 199.781 154.276 199.848 154.194C200.104 153.883 198.306 151.677 198.036 151.18C197.602 150.39 197.274 149.569 197.266 148.657C197.233 146.554 198.212 145.351 199.676 143.977C202.683 141.155 205.451 138.087 208.142 134.957C211.44 131.124 214.62 127.195 217.793 123.25C218.824 121.972 219.86 120.688 220.885 119.405C221.578 118.538 222.345 117.102 223.254 116.462C223.704 116.143 224.511 116.058 225.041 115.904C226.297 115.549 227.563 115.241 228.863 115.109C231.53 114.832 233.945 115.498 236.316 116.659C235.537 115.99 234.755 115.338 233.934 114.721C232.914 113.962 231.447 113.258 230.706 112.196C229.043 109.826 230.284 107.884 231.741 105.992C236.523 99.7785 241.137 93.5543 246.732 88.028C251.454 83.3592 256.801 78.1704 263.973 78.7221C265.933 78.8762 267.872 79.3292 269.749 79.9072C270.651 80.1863 271.421 80.219 271.795 81.1167C273.021 83.9835 272.66 87.5345 271.417 90.3401C269.165 95.4261 265.834 100.294 262.613 104.799C260.631 107.569 258.737 110.401 256.733 113.151C255.465 114.884 254.127 116.549 252.45 117.906C251.049 119.037 249.433 119.962 247.751 120.607C246.361 121.137 244.698 121.748 243.207 121.802C242.912 121.815 241.698 121.496 241.562 121.817C241.435 122.126 242.382 123.249 242.525 123.602C243.076 125.039 242.784 126.639 242.473 128.095C241.932 130.632 240.815 132.794 239.464 135C237.899 137.551 236.54 140.33 234.806 142.762C232.019 146.68 228.569 150.112 225.131 153.445C222.57 155.926 220.038 158.469 217.345 160.811C215.887 162.083 214.64 163.025 212.657 163.235C211.882 163.317 211.075 163.352 210.302 163.287C210.024 163.266 208.613 162.864 208.497 163.005C208.42 163.099 209.454 165.72 209.511 166.081C209.685 167.198 209.621 168.306 209.497 169.415C209.293 171.195 208.885 172.936 208.261 174.618C206.865 178.399 204.908 182.301 202.318 185.416C199.708 188.555 196.565 191.315 193.328 193.781C190.73 195.768 187.761 198.1 184.272 197.161C182.663 196.724 180.806 196.063 179.389 195.165C178.48 194.595 177.774 193.67 177.141 192.825C176.986 192.619 175.173 190.095 175.205 190.044C175.041 190.243 175.733 191.845 175.802 192.059C176.217 193.374 176.638 194.694 177.058 196.014C177.582 197.675 178.101 199.33 178.608 200.987C179.461 203.793 180.07 206.655 180.791 209.501C182.656 216.869 182.844 224.59 184.889 231.918C185.395 233.721 185.94 235.547 186.624 237.289C187.012 238.278 187.369 238.286 187.213 237.075C186.794 233.779 187.829 229.789 189.826 227.072C190.728 225.855 192.291 224.935 193.439 223.921C195.93 221.717 198.359 219.444 200.807 217.195C202.705 215.449 204.596 213.698 206.525 211.986C207.434 211.179 208.466 209.971 209.582 209.452C211.344 208.637 213.382 209.879 214.802 210.81C215.621 211.345 216.423 211.926 217.181 212.549C217.586 212.882 218.406 214.027 218.886 214.137C218.693 214.096 217.807 212.493 217.633 212.261C217.034 211.434 216.418 210.603 215.734 209.844C215.042 209.069 213.325 207.638 213.644 206.424C213.834 205.715 214.902 205.097 215.431 204.646C221.619 199.391 227.936 194.291 234.015 188.917C235.506 187.594 238.515 187.991 240.341 188.32C241.55 188.537 242.617 189.01 243.658 189.659C244.181 189.981 244.69 190.331 245.156 190.733C245.35 190.893 245.863 191.609 246.122 191.606C246.397 191.606 244.411 188.419 244.135 188.133C243.006 186.969 241.208 186.14 240.373 184.726C239.454 183.174 241.661 182.045 242.681 181.103C244.32 179.587 245.906 178.017 247.479 176.427C252.854 170.976 257.732 164.526 264.18 160.272C267.284 158.219 270.775 156.198 274.414 155.302C278.243 154.355 281.649 157.441 282.086 161.184C282.493 164.687 280.605 168.517 279.161 171.591C277.104 175.961 274.658 180.218 271.897 184.187C270.675 185.938 269.275 187.581 267.842 189.169C266.609 190.526 265.301 191.961 263.626 192.778C261.739 193.697 259.264 193.955 257.19 193.953C255.311 193.953 253.415 193.339 251.978 192.119C252.253 193.615 252.615 195.162 252.532 196.687C252.469 197.914 252.001 199.045 251.499 200.147C250.457 202.42 248.992 204.443 247.45 206.403C244.932 209.598 242.293 212.713 239.61 215.762C238.176 217.387 236.535 219.168 234.579 220.147C233.22 220.831 231.618 221.069 230.124 220.815C229.268 220.672 228.427 220.414 227.636 220.059C227.297 219.909 226.962 219.742 226.651 219.535C226.368 219.352 225.924 218.79 225.635 218.7C224.899 218.469 225.515 219.683 225.633 220.115C225.852 220.925 225.997 221.742 226.009 222.589C226.04 224.395 225.889 226.219 225.167 227.888C224.391 229.682 223.276 231.195 222.08 232.721C219.142 236.476 216.122 240.163 212.942 243.708C209.762 247.254 206.432 250.707 202.833 253.829C202.021 254.529 201.197 255.209 200.354 255.875C199.878 256.251 199.324 256.77 198.716 256.899C197.419 257.172 195.405 256.019 194.503 255.189C194.302 257.158 194.206 258.89 193.691 260.858C193.224 262.648 192.661 264.35 191.835 266.013C189.544 270.585 186.175 274.576 182.573 278.168C178.618 282.119 173.384 286.26 167.621 286.856C166.097 287.01 164.543 286.865 163.112 286.308C162.359 286.015 161.657 285.624 161.01 285.142C160.201 284.546 159.623 283.658 158.817 283.094C160.34 286.628 161.063 290.095 161.586 293.851C161.844 295.716 161.559 297.715 161.077 299.523C160.516 301.63 159.314 303.092 157.901 304.715C155.144 307.89 152.008 310.724 148.604 313.19C146.865 314.457 145.149 315.634 143.128 316.394C141.289 317.086 139.404 317.633 137.481 318.02C135.553 318.403 133.578 318.758 131.611 318.853C130.655 318.904 129.693 318.901 128.738 318.854C128.293 318.832 127.599 318.636 127.188 318.74C126.714 318.862 126.436 319.5 126.133 319.94C123.633 323.641 121.211 327.426 118.126 330.676C116.603 332.278 114.951 333.773 113.228 335.151C111.67 336.4 110.112 337.254 108.308 338.084C105.503 339.379 102.649 340.576 99.8226 341.825C93.9878 344.399 88.263 347.545 82.1043 349.292C77.2542 350.668 72.0999 350.978 67.0847 351.274C54.3594 352.032 41.4633 352.423 28.8242 350.526C22.5918 349.586 16.6625 347.271 11.0729 344.399C8.22979 342.938 5.3216 341.64 2.52739 340.071C-0.438807 338.401 -3.10874 336.502 -5.75405 334.357C-5.93023 334.212 -8.76074 331.886 -8.81383 331.95C-9.13237 332.338 -5.03397 336.917 -4.71604 337.296C-2.6257 339.84 -0.527349 342.411 1.74681 344.792C5.11592 348.319 8.62312 351.545 12.538 354.468C16.5047 357.423 20.3086 360.48 24.7357 362.732C28.7643 364.774 33.092 366.284 37.0256 368.513C39.0666 369.669 41.7699 372.186 40.6721 374.767C40.3216 375.6 39.727 376.48 39.2867 377.279C38.6982 378.33 37.814 379.118 36.6622 379.49C34.4587 380.208 31.8982 380.091 29.6245 379.924C27.1123 379.749 24.5657 379.387 22.2043 378.49C20.1678 377.711 18.1949 376.7 16.2889 375.655C11.8734 373.246 7.83137 370.239 3.91212 367.106C1.69276 365.341 -0.528704 363.555 -2.67086 361.696C-2.87051 361.531 -5.29471 359.273 -5.21265 359.174C-5.26092 359.232 -5.07556 359.581 -5.06969 359.586C-5.3489 359.603 -6.60167 358.002 -6.81404 358.261C-7.06984 358.572 -2.07962 364.484 -1.7181 364.978C-0.804632 366.201 0.109863 367.435 0.993297 368.682C1.30093 369.122 1.85181 369.84 1.93123 370.211C2.07057 370.807 3.21736 371.71 3.61686 372.206C4.40513 373.198 5.12755 374.235 5.89651 375.25C7.30592 377.127 8.90985 378.839 10.3337 380.698C12.9703 384.134 14.3326 388.678 14.322 392.989C14.3145 395.176 13.8311 397.524 12.7727 399.459C11.9441 400.982 10.0719 402.601 8.39181 403.149C6.74871 403.688 4.52291 403.127 2.87246 402.873C0.351044 402.493 -2.15017 401.933 -4.58462 401.172C-6.37826 400.613 -8.06365 399.946 -9.60689 398.854C-9.8269 398.703 -11.3814 397.386 -11.2033 398.103C-11.0442 398.736 -9.42731 399.642 -8.95375 400.011C-7.70334 400.98 -6.41807 401.918 -5.12902 402.84C-2.60864 404.646 -0.0540695 406.47 2.64933 407.993C3.26094 408.338 3.93257 408.634 4.32216 409.25C4.85349 410.1 4.82022 411.361 4.83359 412.327C4.85437 413.81 4.67835 415.544 4.01109 416.895C2.90498 419.115 1.04477 421.079 -0.537669 422.956C-2.64344 425.447 -4.81382 427.884 -6.95 430.339C-7.82399 431.343 -8.6921 432.351 -9.53085 433.384C-9.88317 433.812 -10.4535 434.387 -10.7826 434.943C-10.8653 435.091 -10.9432 435.234 -10.9889 435.373C-11.0326 435.534 -11.1457 435.648 -11.1289 435.819C-11.107 436.044 -10.3769 436.496 -10.1938 436.656C-9.56923 437.189 -8.93983 437.717 -8.29114 438.22C-6.6462 439.523 -4.91713 440.747 -3.09677 441.801C-2.07176 442.397 0.444185 444.268 1.47303 443.136C2.78976 441.69 3.98006 440.11 5.22633 438.605C9.55123 433.403 13.8457 428.166 18.3644 423.123C19.8838 421.43 21.5574 419.932 23.1083 418.284C26.3511 414.83 29.3874 411.195 32.5822 407.691C35.9817 403.962 39.4598 400.317 43.1347 396.863C44.9452 395.163 46.7721 393.467 48.6962 391.88C49.8354 390.937 51.0202 390.13 52.1113 389.137C54.8139 386.675 57.5787 384.353 60.7697 382.577C63.9703 380.79 67.2152 379.068 70.5085 377.456C77.0854 374.242 84.1758 371.972 90.9167 369.109C95.1062 367.328 99.3909 365.802 103.514 363.838C107.982 361.706 112.466 359.615 116.934 357.482C123.977 354.12 130.534 349.602 136.75 344.9C150.11 334.786 161.971 322.868 173.255 310.516C176.685 306.762 179.902 302.824 183.09 298.861C188.884 291.679 194.361 284.117 200.586 277.298C203.42 274.197 206.588 271.408 209.524 268.41C213.315 264.54 216.836 260.447 220.437 256.401C225.569 250.623 230.918 245.062 236.277 239.499C238.017 237.692 239.734 235.867 241.481 234.065C242.707 232.8 244.151 231.606 245.265 230.239C245.169 230.356 244.831 230.276 244.978 230.061C245.058 229.94 245.322 229.823 245.442 229.724C246.312 229.013 247.126 228.226 247.936 227.455C249.753 225.712 251.499 223.899 253.351 222.184C255.65 220.069 257.813 217.892 259.92 215.58C265.375 209.614 270.897 203.792 276.056 197.563C278.36 194.773 280.787 191.986 282.759 188.953C285.475 184.858 288.152 180.427 289.564 175.693L289.607 175.748ZM267.199 199.709C266.713 200.215 266.812 200.119 267.063 199.873C266.608 200.404 265.167 202.024 264.774 201.366C264.741 201.31 266.511 199.193 266.636 199.04C268.73 196.373 270.91 193.756 272.852 190.974C275.939 186.536 278.805 181.876 281.519 177.209C282.389 175.72 283.257 174.22 284.059 172.694C284.528 171.8 284.935 170.886 285.274 169.934C285.394 169.609 285.898 167.2 286.123 167.178C286.433 167.148 284.873 172.901 284.542 173.711C283.211 176.946 281.688 180.152 280.057 183.249C277.963 187.234 274.915 190.643 272.061 194.092C270.486 195.996 268.933 197.946 267.204 199.714L267.199 199.709ZM249.581 217.984C247.56 220.288 245.485 222.489 243.146 224.473C243.794 223.923 244.199 223.587 243.097 224.521C241.275 226.054 241.549 225.817 242.233 225.248C240.792 226.464 239.349 227.668 237.858 228.824C236.914 229.554 236.327 229.957 235.067 229.669C239.036 225.415 243.138 221.406 247.51 217.571C249.619 215.723 251.68 213.826 253.712 211.904C254.567 211.091 255.427 210.273 256.252 209.436C256.591 209.095 256.925 208.749 257.258 208.404C257.45 208.207 258.228 207.164 258.538 207.133C258.463 207.141 257.879 208.127 257.778 208.25C257.017 209.248 256.22 210.217 255.429 211.18C253.526 213.483 251.554 215.739 249.587 217.989L249.581 217.984ZM45.1464 111.851C43.7993 112.987 44.2342 108.819 44.2597 108.417C44.3445 106.853 44.4292 105.289 44.4808 103.718C44.5593 101.372 44.5094 99.0386 44.3028 96.7041C44.0033 93.3095 43.5053 89.9288 42.8383 86.5863C42.5522 85.1507 42.2349 83.7289 41.838 82.3204C41.7653 82.0737 40.9722 79.3753 40.9022 79.3768C41.2787 79.3615 42.1895 82.0484 42.3486 82.4055C42.7471 83.3332 43.1146 84.2748 43.4345 85.2264C44.4716 88.3222 45.232 91.5152 46.07 94.6736C46.8412 97.5901 47.226 100.366 47.1728 103.412C47.1358 105.133 46.9518 106.841 46.5544 108.522C46.3083 109.54 46.0261 111.128 45.1619 111.844L45.1464 111.851ZM37.3397 147.783C37.3038 147.803 37.6072 146.763 37.6034 146.78C38.2884 144.893 37.9511 145.806 37.6912 146.517C40.2249 139.4 40.7512 131.637 41.302 124.179C41.3858 123.047 41.1772 121.134 41.687 120.107C42.6943 118.091 43.5108 121.084 43.6406 121.86C44.2965 125.862 43.3138 129.62 42.3211 133.497C41.6338 136.189 40.8625 138.852 39.9529 141.479C39.5491 142.652 39.1182 143.823 38.6471 144.971C38.3858 145.612 37.9523 147.421 37.33 147.795L37.3397 147.783ZM179.651 52.0621C182.709 48.3176 185.848 44.6299 188.736 40.7562C190.588 38.2637 192.215 35.6258 193.986 33.0764C195.961 30.2425 197.915 27.4213 199.261 24.2276C199.902 22.7176 200.55 21.1744 200.968 19.5891C201.071 19.2117 201.172 17.9759 201.322 18.9063C201.47 19.8153 201.052 21.0552 200.884 21.9411C200.624 23.3112 200.337 24.6787 199.977 26.0262C198.522 31.5312 194.715 36.4506 191.31 40.8934C189.135 43.7307 186.792 46.3306 184.286 48.8762C183.161 50.0177 181.519 52.4952 179.64 52.0631L179.651 52.0621ZM156.818 86.0929C156.383 85.7358 158.762 82.3385 159.049 81.846C160.002 80.219 160.894 78.571 161.934 76.9951C163.391 74.7788 164.831 72.548 166.324 70.3606C168.005 67.8956 169.705 65.445 171.421 63.0089C172.094 62.0467 172.778 61.0833 173.462 60.1307C173.576 59.9684 174.789 58.5645 174.788 58.5538C174.805 59.1191 174.227 59.9425 173.99 60.4464C173.388 61.742 172.763 63.029 172.127 64.3171C170.788 67.0241 169.401 69.6925 167.879 72.2985C166.372 74.887 164.924 77.7504 163.035 80.0845C162.417 80.8362 161.678 81.5079 161.02 82.2365C159.962 83.4038 158.899 84.9011 157.551 85.7512C157.537 85.7688 156.94 86.1836 156.828 86.0919L156.818 86.0929ZM126.1 135.822C125.642 135.445 127.164 132.888 127.344 132.525C127.979 131.226 128.649 129.956 129.415 128.736C131.168 125.956 133.114 123.314 134.873 120.539C138.383 115.011 142.053 109.576 145.483 104.002C146.694 102.026 147.853 100.017 148.944 97.9717C149.415 97.0993 149.885 96.2163 150.327 95.3305C150.399 95.1831 150.853 93.9722 151.025 93.9554C151.067 93.9513 149.979 97.0712 149.812 97.4655C149.133 99.1305 148.487 100.814 147.768 102.466C146.485 105.416 145.068 108.374 143.33 111.088C139.596 116.923 135.123 122.329 131.042 127.918C130.213 129.058 129.472 130.259 128.748 131.475C128.567 131.779 126.196 135.92 126.091 135.833L126.1 135.822ZM232.808 73.4846C232.345 73.6162 232.569 73.4161 232.646 73.1061C232.97 71.8863 234.132 70.5684 234.82 69.5399C236.776 66.6214 238.982 63.889 240.967 60.9946C244.587 55.7046 247.934 50.2199 251.352 44.8038C252.38 43.1695 253.449 41.5583 254.442 39.895C254.812 39.2647 255.188 38.6286 255.518 37.9752C255.698 37.6119 256.037 36.4339 256.368 36.2828C256.464 36.2734 255.32 39.2097 255.248 39.3571C254.545 40.8948 253.751 42.3874 252.969 43.8896C251.249 47.1792 249.634 50.5451 247.699 53.7262C245.716 56.9768 243.394 60.0175 241.238 63.1554C239.149 66.2004 236.694 68.8273 234.354 71.6755L234.377 71.6948C234.073 72.0647 233.323 73.3477 232.803 73.4905L232.808 73.4846ZM211.576 102.466C212.936 100.416 214.474 98.4616 215.961 96.4962C218.276 93.44 220.62 90.4079 222.971 87.3806C224.151 85.8611 225.32 84.3427 226.488 82.8135C226.81 82.3986 228.032 80.2647 228.584 80.2162C228.724 80.2727 227.061 82.8116 226.948 82.9846C225.999 84.4977 225.091 86.0338 224.159 87.5507C222.51 90.2393 220.856 92.9232 219.166 95.5781C216.66 99.5008 213.926 103.305 210.827 106.789C209.933 107.806 210.205 107.498 210.619 107.042C209.733 108.084 209.111 108.961 207.707 109.184C209.372 107.158 210.158 104.646 211.593 102.47L211.576 102.466ZM180.803 149.305C180.689 149.349 180.74 149.322 180.797 149.301C180.622 149.334 181.119 148.562 181.147 148.516C181.684 147.707 182.278 146.936 182.844 146.152C183.671 145.002 184.494 143.857 185.298 142.688C186.282 141.263 187.187 139.803 188.055 138.303C191.061 133.089 194.71 128.266 198.098 123.307C199.137 121.779 200.215 120.275 201.208 118.72C201.339 118.513 202.529 116.323 202.758 116.392C202.702 116.376 198.546 124.856 198.162 125.563C196.561 128.528 194.848 131.439 192.926 134.208C190.905 137.122 188.618 139.857 186.404 142.623C185.118 144.223 183.809 145.804 182.494 147.379C182.079 147.885 181.438 149 180.819 149.298C180.845 149.291 180.861 149.284 180.809 149.31L180.803 149.305ZM274.989 98.2051C275.514 97.0628 275.953 95.9182 276.322 94.7157C276.579 93.8643 276.83 93.008 277.042 92.1394C277.08 91.9737 277.521 90.467 277.509 90.4573C277.733 90.6407 277.316 92.2368 277.28 92.4239C277.12 93.374 276.937 94.3261 276.716 95.2658C276.406 96.6247 275.983 97.9298 275.482 99.2208C274.586 101.544 273.545 103.817 272.349 106.002C269.193 111.782 265.121 117.035 260.992 122.142C259.518 123.961 258.025 125.765 256.509 127.549C256.355 127.737 254.559 129.922 254.269 129.772C254.195 129.731 254.354 129.31 254.518 129.11L254.638 128.963C258.64 124.095 262.361 119.017 265.772 113.693C269.028 108.606 272.436 103.693 274.972 98.2014L274.989 98.2051ZM201.029 197.483C200.911 197.603 200.906 197.608 200.965 197.549C199.455 199.063 198 200.641 196.448 202.111C195.959 202.575 193.139 205.551 192.281 205.003C192.598 205.204 195.741 201.786 195.996 201.513C198.339 199.021 200.58 196.425 202.852 193.865C205.177 191.24 207.544 188.659 209.88 186.043C211.102 184.676 212.312 183.3 213.529 181.939C213.851 181.583 215.249 179.535 215.847 179.514C215.798 179.513 215.231 180.395 215.16 180.494C214.669 181.114 214.167 181.725 213.682 182.34C212.034 184.429 210.42 186.536 208.794 188.634C206.373 191.76 203.83 194.698 201.029 197.483ZM227.106 166.748C226.139 167.901 225.173 169.065 224.182 170.199C224.056 170.351 222.125 172.414 222.041 172.109C221.923 171.678 223.732 169.74 224.012 169.34C225.01 167.898 225.921 166.394 226.886 164.933C228.642 162.294 230.567 159.772 232.306 157.129C232.603 156.684 232.538 156.788 232.415 156.972C235.057 153.112 238.426 149.731 241.252 145.993C241.692 145.41 247.694 138.084 247.564 137.918C247.723 138.108 246.078 140.396 245.975 140.558C244.714 142.571 243.459 144.589 242.191 146.598C240.752 148.888 239.308 151.184 237.73 153.391C234.423 158.013 230.746 162.38 227.111 166.742L227.106 166.748ZM212.898 254.476C217.484 249.459 222.139 244.478 226.306 239.097C227.274 237.846 228.243 236.596 229.223 235.355C229.358 235.191 230.241 234.332 230.227 234.134C230.257 234.433 229.807 234.969 229.673 235.203C229.234 235.964 228.778 236.711 228.322 237.458C227.134 239.394 225.928 241.315 224.695 243.224C221.77 247.727 218.316 251.943 214.416 255.635C214.209 255.838 214.159 255.886 214.194 255.856C212.092 257.936 210.126 260.148 207.98 262.172C207.461 262.66 203.932 266.451 202.858 265.578C202.782 265.515 212.157 255.294 212.909 254.475L212.898 254.476ZM48.7701 365.513C46.9279 365.12 45.0713 364.745 43.2707 364.171C42.8972 364.051 40.7836 363.534 40.832 362.924C40.7688 363.216 43.6659 363.738 43.8733 363.761C45.7163 363.997 47.5737 364.047 49.43 364.087C52.8019 364.162 56.1755 364.2 59.5418 364.162C62.9188 364.124 66.3264 364.288 69.6973 364.077C72.9496 363.867 76.195 363.091 79.3559 362.333C82.3691 361.612 85.4572 360.883 88.4216 359.994C91.8045 358.967 94.933 357.16 98.2335 355.897C101.716 354.558 104.979 352.753 108.369 351.191C111.815 349.595 115.273 348.059 118.618 346.262C122.426 344.216 126.257 342.248 129.915 339.952C131.844 338.743 133.761 337.524 135.722 336.371C135.992 336.209 138.052 334.852 138.463 335.19C138.418 335.34 138.314 335.431 138.139 335.465C136.923 336.01 135.822 337.182 134.767 337.987C133.521 338.941 132.268 339.879 130.99 340.786C128.502 342.569 126.002 344.342 123.527 346.144C121.289 347.778 119.131 349.35 116.673 350.665C114.019 352.086 111.286 353.352 108.593 354.69C103.457 357.239 98.295 359.785 93.0502 362.096C88.3497 364.176 83.427 366.191 78.4221 367.42C73.4909 368.631 69.167 371.247 64.4666 373.051C62.7436 373.711 60.9574 374.112 59.2987 374.933C56.9193 376.116 54.6306 377.62 52.4628 379.144C48.2375 382.107 44.8234 386.129 41.2629 389.815C37.3497 393.869 33.3052 397.797 29.3685 401.833C24.9456 406.364 20.7517 411.084 16.417 415.687C15.0564 417.127 13.6522 418.453 12.122 419.704C10.9421 420.673 9.98946 421.7 9.00865 422.882C8.80594 423.128 6.20506 426.52 5.75289 426.149C5.57084 425.999 15.0307 414.489 15.9426 413.487C19.8049 409.243 23.917 405.233 27.7371 400.944C31.5273 396.68 35.43 392.518 39.2682 388.303C43.3932 383.763 47.6761 379.402 52.77 375.933C55.7277 373.927 58.8583 372.141 62.157 370.749C63.6243 370.125 65.1235 369.606 66.5701 368.935C67.4016 368.546 68.2251 368.131 69.0496 367.726C69.524 367.496 70.5926 367.213 70.916 366.82C70.8147 366.943 69.3332 366.926 69.2155 366.938C68.6699 366.991 68.1242 367.044 67.5727 367.093C66.2712 367.204 64.9629 367.299 63.6534 367.384C61.6941 367.506 59.8409 367.498 57.8915 367.224C54.8257 366.8 51.7888 366.173 48.7663 365.529L48.7701 365.513Z" fill="#1E1E1E"/>
</svg>
