<svg width="377" height="110" viewBox="0 0 377 110" fill="none" xmlns="http://www.w3.org/2000/svg">
<path d="M0 100.705L2.87701 97.8493H6.70371V92.6979H14.6923V89.7302H18.1559L19.4966 91.0741V98.6332L21.2284 100.369H22.2619V93.0339H23.882V85.5867H25.2506V84.0468H26.2283V82.815H26.9824V81.6671H28.0997V80.7432H35.4459L39.496 84.8027V90.6261H41.8144V88.1904H47.3729V67.8086H57.2888L59.5513 65.5128H62.7356L66.6181 69.4044V70.6363L70.4728 74.4999V78.3914H70.8359V91.914H71.5621V70.3003H75.4168L77.6234 68.0886H79.3831V73.66H80.6959V71.8682L83.154 69.4044H89.299V24.8333H92.7906V22.6775H97.3156V0H98.377V22.6495H103.125V24.9453H106.002V68.8445H117.036V91.522H117.818V76.6276L119.214 75.2278H124.075L125.136 76.2917V78.9234L127.007 77.0196V75.5638L130.192 72.3721V77.3836H132.259V67.1927L133.599 65.8768H137.538L139.409 67.7526V55.6859L140.471 54.594V48.0988H145.945V41.9674L147.593 40.3156H159.632L161.029 41.7434V45.3271H162.649V63.4411H166.001V66.1568L167.369 67.5286H168.626V73.716H170.721L172.006 72.4281V70.0484L172.844 69.2085V62.6572L174.408 61.0893H181.643V59.6895H185.832V61.2013H190.497V76.4877H194.184V74.9758L194.91 74.2479H197.285L198.011 74.9758H202.396V74.0799H204.268V72.7361H205.162V65.7648L205.804 65.1209H210.943V62.3492L212.2 61.0893H215.999V65.0369H221.222V76.4037H223.122L223.569 75.9277V70.3563H225.245V64.309H231.976V55.9939L232.675 55.294H249.685L251.836 53.1102L253.735 55.014V59.4095L255.439 61.0893V70.8603H259.573V74.3319H269.042V63.889H277.198L281.975 59.0736V56.8618L284.433 54.4261V52.2423H288.12L289.88 54.0341H292.645V50.9264H293.148V54.0341H296.025L298.846 56.8618H302.142V66.4927H310.522V64.113H316.359V66.6047H321.024V82.675H331.275V87.7704L333.929 85.1107V76.8236H335.102V75.8437H337.057V73.268H338.901V47.2309H345.353V44.1792H350.688L353.872 47.3988H358.649L362.224 50.9824H367.14L369.263 53.1102H374.151V64.533L377 67.3886V110H0V100.705Z" fill="#262523"/>
</svg>
